<?xml version="1.0" encoding="utf-8" standalone="no"?>
<!DOCTYPE svg PUBLIC "-//W3C//DTD SVG 1.1//EN"
  "http://www.w3.org/Graphics/SVG/1.1/DTD/svg11.dtd">
<!-- Created with matplotlib (http://matplotlib.org/) -->
<svg height="576pt" version="1.1" viewBox="0 0 432 576" width="432pt" xmlns="http://www.w3.org/2000/svg" xmlns:xlink="http://www.w3.org/1999/xlink">
 <defs>
  <style type="text/css">
*{stroke-linecap:butt;stroke-linejoin:round;}
  </style>
 </defs>
 <g id="figure_1">
  <g id="patch_1">
   <path d="M 0 576 
L 432 576 
L 432 0 
L 0 0 
z
" style="fill:#ffffff;"/>
  </g>
  <g id="axes_1">
   <g id="patch_2">
    <path d="M 54 266.792727 
L 388.8 266.792727 
L 388.8 69.12 
L 54 69.12 
z
" style="fill:#eaeaf2;"/>
   </g>
   <g id="matplotlib.axis_1">
    <g id="xtick_1">
     <g id="line2d_1">
      <path clip-path="url(#pc2f4646425)" d="M 87.178378 266.792727 
L 87.178378 69.12 
" style="fill:none;stroke:#ffffff;stroke-linecap:round;stroke-width:0.8;"/>
     </g>
     <g id="line2d_2"/>
    </g>
    <g id="xtick_2">
     <g id="line2d_3">
      <path clip-path="url(#pc2f4646425)" d="M 147.502703 266.792727 
L 147.502703 69.12 
" style="fill:none;stroke:#ffffff;stroke-linecap:round;stroke-width:0.8;"/>
     </g>
     <g id="line2d_4"/>
    </g>
    <g id="xtick_3">
     <g id="line2d_5">
      <path clip-path="url(#pc2f4646425)" d="M 207.827027 266.792727 
L 207.827027 69.12 
" style="fill:none;stroke:#ffffff;stroke-linecap:round;stroke-width:0.8;"/>
     </g>
     <g id="line2d_6"/>
    </g>
    <g id="xtick_4">
     <g id="line2d_7">
      <path clip-path="url(#pc2f4646425)" d="M 268.151351 266.792727 
L 268.151351 69.12 
" style="fill:none;stroke:#ffffff;stroke-linecap:round;stroke-width:0.8;"/>
     </g>
     <g id="line2d_8"/>
    </g>
    <g id="xtick_5">
     <g id="line2d_9">
      <path clip-path="url(#pc2f4646425)" d="M 328.475676 266.792727 
L 328.475676 69.12 
" style="fill:none;stroke:#ffffff;stroke-linecap:round;stroke-width:0.8;"/>
     </g>
     <g id="line2d_10"/>
    </g>
    <g id="xtick_6">
     <g id="line2d_11">
      <path clip-path="url(#pc2f4646425)" d="M 388.8 266.792727 
L 388.8 69.12 
" style="fill:none;stroke:#ffffff;stroke-linecap:round;stroke-width:0.8;"/>
     </g>
     <g id="line2d_12"/>
    </g>
    <g id="xtick_7">
     <g id="line2d_13"/>
    </g>
    <g id="xtick_8">
     <g id="line2d_14"/>
    </g>
    <g id="xtick_9">
     <g id="line2d_15"/>
    </g>
    <g id="xtick_10">
     <g id="line2d_16"/>
    </g>
    <g id="xtick_11">
     <g id="line2d_17"/>
    </g>
    <g id="xtick_12">
     <g id="line2d_18"/>
    </g>
    <g id="text_1">
     <!-- Calendar year -->
     <defs>
      <path d="M 58.796875 25.09375 
L 68.265625 22.703125 
Q 65.28125 11.03125 57.546875 4.90625 
Q 49.8125 -1.21875 38.625 -1.21875 
Q 27.046875 -1.21875 19.796875 3.484375 
Q 12.546875 8.203125 8.765625 17.140625 
Q 4.984375 26.078125 4.984375 36.328125 
Q 4.984375 47.515625 9.25 55.828125 
Q 13.53125 64.15625 21.40625 68.46875 
Q 29.296875 72.796875 38.765625 72.796875 
Q 49.515625 72.796875 56.828125 67.328125 
Q 64.15625 61.859375 67.046875 51.953125 
L 57.71875 49.75 
Q 55.21875 57.5625 50.484375 61.125 
Q 45.75 64.703125 38.578125 64.703125 
Q 30.328125 64.703125 24.78125 60.734375 
Q 19.234375 56.78125 16.984375 50.109375 
Q 14.75 43.453125 14.75 36.375 
Q 14.75 27.25 17.40625 20.4375 
Q 20.0625 13.625 25.671875 10.25 
Q 31.296875 6.890625 37.84375 6.890625 
Q 45.796875 6.890625 51.3125 11.46875 
Q 56.84375 16.0625 58.796875 25.09375 
z
" id="ArialMT-43"/>
      <path d="M 40.4375 6.390625 
Q 35.546875 2.25 31.03125 0.53125 
Q 26.515625 -1.171875 21.34375 -1.171875 
Q 12.796875 -1.171875 8.203125 3 
Q 3.609375 7.171875 3.609375 13.671875 
Q 3.609375 17.484375 5.34375 20.625 
Q 7.078125 23.78125 9.890625 25.6875 
Q 12.703125 27.59375 16.21875 28.5625 
Q 18.796875 29.25 24.03125 29.890625 
Q 34.671875 31.15625 39.703125 32.90625 
Q 39.75 34.71875 39.75 35.203125 
Q 39.75 40.578125 37.25 42.78125 
Q 33.890625 45.75 27.25 45.75 
Q 21.046875 45.75 18.09375 43.578125 
Q 15.140625 41.40625 13.71875 35.890625 
L 5.125 37.0625 
Q 6.296875 42.578125 8.984375 45.96875 
Q 11.671875 49.359375 16.75 51.1875 
Q 21.828125 53.03125 28.515625 53.03125 
Q 35.15625 53.03125 39.296875 51.46875 
Q 43.453125 49.90625 45.40625 47.53125 
Q 47.359375 45.171875 48.140625 41.546875 
Q 48.578125 39.3125 48.578125 33.453125 
L 48.578125 21.734375 
Q 48.578125 9.46875 49.140625 6.21875 
Q 49.703125 2.984375 51.375 0 
L 42.1875 0 
Q 40.828125 2.734375 40.4375 6.390625 
z
M 39.703125 26.03125 
Q 34.90625 24.078125 25.34375 22.703125 
Q 19.921875 21.921875 17.671875 20.9375 
Q 15.4375 19.96875 14.203125 18.09375 
Q 12.984375 16.21875 12.984375 13.921875 
Q 12.984375 10.40625 15.640625 8.0625 
Q 18.3125 5.71875 23.4375 5.71875 
Q 28.515625 5.71875 32.46875 7.9375 
Q 36.421875 10.15625 38.28125 14.015625 
Q 39.703125 17 39.703125 22.796875 
z
" id="ArialMT-61"/>
      <path d="M 6.390625 0 
L 6.390625 71.578125 
L 15.1875 71.578125 
L 15.1875 0 
z
" id="ArialMT-6c"/>
      <path d="M 42.09375 16.703125 
L 51.171875 15.578125 
Q 49.03125 7.625 43.21875 3.21875 
Q 37.40625 -1.171875 28.375 -1.171875 
Q 17 -1.171875 10.328125 5.828125 
Q 3.65625 12.84375 3.65625 25.484375 
Q 3.65625 38.578125 10.390625 45.796875 
Q 17.140625 53.03125 27.875 53.03125 
Q 38.28125 53.03125 44.875 45.953125 
Q 51.46875 38.875 51.46875 26.03125 
Q 51.46875 25.25 51.421875 23.6875 
L 12.75 23.6875 
Q 13.234375 15.140625 17.578125 10.59375 
Q 21.921875 6.0625 28.421875 6.0625 
Q 33.25 6.0625 36.671875 8.59375 
Q 40.09375 11.140625 42.09375 16.703125 
z
M 13.234375 30.90625 
L 42.1875 30.90625 
Q 41.609375 37.453125 38.875 40.71875 
Q 34.671875 45.796875 27.984375 45.796875 
Q 21.921875 45.796875 17.796875 41.75 
Q 13.671875 37.703125 13.234375 30.90625 
z
" id="ArialMT-65"/>
      <path d="M 6.59375 0 
L 6.59375 51.859375 
L 14.5 51.859375 
L 14.5 44.484375 
Q 20.21875 53.03125 31 53.03125 
Q 35.6875 53.03125 39.625 51.34375 
Q 43.5625 49.65625 45.515625 46.921875 
Q 47.46875 44.1875 48.25 40.4375 
Q 48.734375 37.984375 48.734375 31.890625 
L 48.734375 0 
L 39.9375 0 
L 39.9375 31.546875 
Q 39.9375 36.921875 38.90625 39.578125 
Q 37.890625 42.234375 35.28125 43.8125 
Q 32.671875 45.40625 29.15625 45.40625 
Q 23.53125 45.40625 19.453125 41.84375 
Q 15.375 38.28125 15.375 28.328125 
L 15.375 0 
z
" id="ArialMT-6e"/>
      <path d="M 40.234375 0 
L 40.234375 6.546875 
Q 35.296875 -1.171875 25.734375 -1.171875 
Q 19.53125 -1.171875 14.328125 2.25 
Q 9.125 5.671875 6.265625 11.796875 
Q 3.421875 17.921875 3.421875 25.875 
Q 3.421875 33.640625 6 39.96875 
Q 8.59375 46.296875 13.765625 49.65625 
Q 18.953125 53.03125 25.34375 53.03125 
Q 30.03125 53.03125 33.6875 51.046875 
Q 37.359375 49.078125 39.65625 45.90625 
L 39.65625 71.578125 
L 48.390625 71.578125 
L 48.390625 0 
z
M 12.453125 25.875 
Q 12.453125 15.921875 16.640625 10.984375 
Q 20.84375 6.0625 26.5625 6.0625 
Q 32.328125 6.0625 36.34375 10.765625 
Q 40.375 15.484375 40.375 25.140625 
Q 40.375 35.796875 36.265625 40.765625 
Q 32.171875 45.75 26.171875 45.75 
Q 20.3125 45.75 16.375 40.96875 
Q 12.453125 36.1875 12.453125 25.875 
z
" id="ArialMT-64"/>
      <path d="M 6.5 0 
L 6.5 51.859375 
L 14.40625 51.859375 
L 14.40625 44 
Q 17.4375 49.515625 20 51.265625 
Q 22.5625 53.03125 25.640625 53.03125 
Q 30.078125 53.03125 34.671875 50.203125 
L 31.640625 42.046875 
Q 28.421875 43.953125 25.203125 43.953125 
Q 22.3125 43.953125 20.015625 42.21875 
Q 17.71875 40.484375 16.75 37.40625 
Q 15.28125 32.71875 15.28125 27.15625 
L 15.28125 0 
z
" id="ArialMT-72"/>
      <path id="ArialMT-20"/>
      <path d="M 6.203125 -19.96875 
L 5.21875 -11.71875 
Q 8.109375 -12.5 10.25 -12.5 
Q 13.1875 -12.5 14.9375 -11.515625 
Q 16.703125 -10.546875 17.828125 -8.796875 
Q 18.65625 -7.46875 20.515625 -2.25 
Q 20.75 -1.515625 21.296875 -0.09375 
L 1.609375 51.859375 
L 11.078125 51.859375 
L 21.875 21.828125 
Q 23.96875 16.109375 25.640625 9.8125 
Q 27.15625 15.875 29.25 21.625 
L 40.328125 51.859375 
L 49.125 51.859375 
L 29.390625 -0.875 
Q 26.21875 -9.421875 24.46875 -12.640625 
Q 22.125 -17 19.09375 -19.015625 
Q 16.0625 -21.046875 11.859375 -21.046875 
Q 9.328125 -21.046875 6.203125 -19.96875 
z
" id="ArialMT-79"/>
     </defs>
     <g style="fill:#262626;" transform="translate(191.001019 281.239465)scale(0.0968 -0.0968)">
      <use xlink:href="#ArialMT-43"/>
      <use x="72.216797" xlink:href="#ArialMT-61"/>
      <use x="127.832031" xlink:href="#ArialMT-6c"/>
      <use x="150.048828" xlink:href="#ArialMT-65"/>
      <use x="205.664062" xlink:href="#ArialMT-6e"/>
      <use x="261.279297" xlink:href="#ArialMT-64"/>
      <use x="316.894531" xlink:href="#ArialMT-61"/>
      <use x="372.509766" xlink:href="#ArialMT-72"/>
      <use x="405.810547" xlink:href="#ArialMT-20"/>
      <use x="433.59375" xlink:href="#ArialMT-79"/>
      <use x="483.59375" xlink:href="#ArialMT-65"/>
      <use x="539.208984" xlink:href="#ArialMT-61"/>
      <use x="594.824219" xlink:href="#ArialMT-72"/>
     </g>
    </g>
   </g>
   <g id="matplotlib.axis_2">
    <g id="ytick_1">
     <g id="line2d_19">
      <path clip-path="url(#pc2f4646425)" d="M 54 247.025455 
L 388.8 247.025455 
" style="fill:none;stroke:#ffffff;stroke-linecap:round;stroke-width:0.8;"/>
     </g>
     <g id="line2d_20"/>
     <g id="text_2">
      <!-- 0.0 -->
      <defs>
       <path d="M 4.15625 35.296875 
Q 4.15625 48 6.765625 55.734375 
Q 9.375 63.484375 14.515625 67.671875 
Q 19.671875 71.875 27.484375 71.875 
Q 33.25 71.875 37.59375 69.546875 
Q 41.9375 67.234375 44.765625 62.859375 
Q 47.609375 58.5 49.21875 52.21875 
Q 50.828125 45.953125 50.828125 35.296875 
Q 50.828125 22.703125 48.234375 14.96875 
Q 45.65625 7.234375 40.5 3 
Q 35.359375 -1.21875 27.484375 -1.21875 
Q 17.140625 -1.21875 11.234375 6.203125 
Q 4.15625 15.140625 4.15625 35.296875 
z
M 13.1875 35.296875 
Q 13.1875 17.671875 17.3125 11.828125 
Q 21.4375 6 27.484375 6 
Q 33.546875 6 37.671875 11.859375 
Q 41.796875 17.71875 41.796875 35.296875 
Q 41.796875 52.984375 37.671875 58.78125 
Q 33.546875 64.59375 27.390625 64.59375 
Q 21.34375 64.59375 17.71875 59.46875 
Q 13.1875 52.9375 13.1875 35.296875 
z
" id="ArialMT-30"/>
       <path d="M 9.078125 0 
L 9.078125 10.015625 
L 19.09375 10.015625 
L 19.09375 0 
z
" id="ArialMT-2e"/>
      </defs>
      <g style="fill:#262626;" transform="translate(36.168 250.174892)scale(0.088 -0.088)">
       <use xlink:href="#ArialMT-30"/>
       <use x="55.615234" xlink:href="#ArialMT-2e"/>
       <use x="83.398438" xlink:href="#ArialMT-30"/>
      </g>
     </g>
    </g>
    <g id="ytick_2">
     <g id="line2d_21">
      <path clip-path="url(#pc2f4646425)" d="M 54 207.490909 
L 388.8 207.490909 
" style="fill:none;stroke:#ffffff;stroke-linecap:round;stroke-width:0.8;"/>
     </g>
     <g id="line2d_22"/>
     <g id="text_3">
      <!-- 0.2 -->
      <defs>
       <path d="M 50.34375 8.453125 
L 50.34375 0 
L 3.03125 0 
Q 2.9375 3.171875 4.046875 6.109375 
Q 5.859375 10.9375 9.828125 15.625 
Q 13.8125 20.3125 21.34375 26.46875 
Q 33.015625 36.03125 37.109375 41.625 
Q 41.21875 47.21875 41.21875 52.203125 
Q 41.21875 57.421875 37.46875 61 
Q 33.734375 64.59375 27.734375 64.59375 
Q 21.390625 64.59375 17.578125 60.78125 
Q 13.765625 56.984375 13.71875 50.25 
L 4.6875 51.171875 
Q 5.609375 61.28125 11.65625 66.578125 
Q 17.71875 71.875 27.9375 71.875 
Q 38.234375 71.875 44.234375 66.15625 
Q 50.25 60.453125 50.25 52 
Q 50.25 47.703125 48.484375 43.546875 
Q 46.734375 39.40625 42.65625 34.8125 
Q 38.578125 30.21875 29.109375 22.21875 
Q 21.1875 15.578125 18.9375 13.203125 
Q 16.703125 10.84375 15.234375 8.453125 
z
" id="ArialMT-32"/>
      </defs>
      <g style="fill:#262626;" transform="translate(36.168 210.640347)scale(0.088 -0.088)">
       <use xlink:href="#ArialMT-30"/>
       <use x="55.615234" xlink:href="#ArialMT-2e"/>
       <use x="83.398438" xlink:href="#ArialMT-32"/>
      </g>
     </g>
    </g>
    <g id="ytick_3">
     <g id="line2d_23">
      <path clip-path="url(#pc2f4646425)" d="M 54 167.956364 
L 388.8 167.956364 
" style="fill:none;stroke:#ffffff;stroke-linecap:round;stroke-width:0.8;"/>
     </g>
     <g id="line2d_24"/>
     <g id="text_4">
      <!-- 0.4 -->
      <defs>
       <path d="M 32.328125 0 
L 32.328125 17.140625 
L 1.265625 17.140625 
L 1.265625 25.203125 
L 33.9375 71.578125 
L 41.109375 71.578125 
L 41.109375 25.203125 
L 50.78125 25.203125 
L 50.78125 17.140625 
L 41.109375 17.140625 
L 41.109375 0 
z
M 32.328125 25.203125 
L 32.328125 57.46875 
L 9.90625 25.203125 
z
" id="ArialMT-34"/>
      </defs>
      <g style="fill:#262626;" transform="translate(36.168 171.105801)scale(0.088 -0.088)">
       <use xlink:href="#ArialMT-30"/>
       <use x="55.615234" xlink:href="#ArialMT-2e"/>
       <use x="83.398438" xlink:href="#ArialMT-34"/>
      </g>
     </g>
    </g>
    <g id="ytick_4">
     <g id="line2d_25">
      <path clip-path="url(#pc2f4646425)" d="M 54 128.421818 
L 388.8 128.421818 
" style="fill:none;stroke:#ffffff;stroke-linecap:round;stroke-width:0.8;"/>
     </g>
     <g id="line2d_26"/>
     <g id="text_5">
      <!-- 0.6 -->
      <defs>
       <path d="M 49.75 54.046875 
L 41.015625 53.375 
Q 39.84375 58.546875 37.703125 60.890625 
Q 34.125 64.65625 28.90625 64.65625 
Q 24.703125 64.65625 21.53125 62.3125 
Q 17.390625 59.28125 14.984375 53.46875 
Q 12.59375 47.65625 12.5 36.921875 
Q 15.671875 41.75 20.265625 44.09375 
Q 24.859375 46.4375 29.890625 46.4375 
Q 38.671875 46.4375 44.84375 39.96875 
Q 51.03125 33.5 51.03125 23.25 
Q 51.03125 16.5 48.125 10.71875 
Q 45.21875 4.9375 40.140625 1.859375 
Q 35.0625 -1.21875 28.609375 -1.21875 
Q 17.625 -1.21875 10.6875 6.859375 
Q 3.765625 14.9375 3.765625 33.5 
Q 3.765625 54.25 11.421875 63.671875 
Q 18.109375 71.875 29.4375 71.875 
Q 37.890625 71.875 43.28125 67.140625 
Q 48.6875 62.40625 49.75 54.046875 
z
M 13.875 23.1875 
Q 13.875 18.65625 15.796875 14.5 
Q 17.71875 10.359375 21.1875 8.171875 
Q 24.65625 6 28.46875 6 
Q 34.03125 6 38.03125 10.484375 
Q 42.046875 14.984375 42.046875 22.703125 
Q 42.046875 30.125 38.078125 34.390625 
Q 34.125 38.671875 28.125 38.671875 
Q 22.171875 38.671875 18.015625 34.390625 
Q 13.875 30.125 13.875 23.1875 
z
" id="ArialMT-36"/>
      </defs>
      <g style="fill:#262626;" transform="translate(36.168 131.571256)scale(0.088 -0.088)">
       <use xlink:href="#ArialMT-30"/>
       <use x="55.615234" xlink:href="#ArialMT-2e"/>
       <use x="83.398438" xlink:href="#ArialMT-36"/>
      </g>
     </g>
    </g>
    <g id="ytick_5">
     <g id="line2d_27">
      <path clip-path="url(#pc2f4646425)" d="M 54 88.887273 
L 388.8 88.887273 
" style="fill:none;stroke:#ffffff;stroke-linecap:round;stroke-width:0.8;"/>
     </g>
     <g id="line2d_28"/>
     <g id="text_6">
      <!-- 0.8 -->
      <defs>
       <path d="M 17.671875 38.8125 
Q 12.203125 40.828125 9.5625 44.53125 
Q 6.9375 48.25 6.9375 53.421875 
Q 6.9375 61.234375 12.546875 66.546875 
Q 18.171875 71.875 27.484375 71.875 
Q 36.859375 71.875 42.578125 66.421875 
Q 48.296875 60.984375 48.296875 53.171875 
Q 48.296875 48.1875 45.671875 44.5 
Q 43.0625 40.828125 37.75 38.8125 
Q 44.34375 36.671875 47.78125 31.875 
Q 51.21875 27.09375 51.21875 20.453125 
Q 51.21875 11.28125 44.71875 5.03125 
Q 38.234375 -1.21875 27.640625 -1.21875 
Q 17.046875 -1.21875 10.546875 5.046875 
Q 4.046875 11.328125 4.046875 20.703125 
Q 4.046875 27.6875 7.59375 32.390625 
Q 11.140625 37.109375 17.671875 38.8125 
z
M 15.921875 53.71875 
Q 15.921875 48.640625 19.1875 45.40625 
Q 22.46875 42.1875 27.6875 42.1875 
Q 32.765625 42.1875 36.015625 45.375 
Q 39.265625 48.578125 39.265625 53.21875 
Q 39.265625 58.0625 35.90625 61.359375 
Q 32.5625 64.65625 27.59375 64.65625 
Q 22.5625 64.65625 19.234375 61.421875 
Q 15.921875 58.203125 15.921875 53.71875 
z
M 13.09375 20.65625 
Q 13.09375 16.890625 14.875 13.375 
Q 16.65625 9.859375 20.171875 7.921875 
Q 23.6875 6 27.734375 6 
Q 34.03125 6 38.125 10.046875 
Q 42.234375 14.109375 42.234375 20.359375 
Q 42.234375 26.703125 38.015625 30.859375 
Q 33.796875 35.015625 27.4375 35.015625 
Q 21.234375 35.015625 17.15625 30.90625 
Q 13.09375 26.8125 13.09375 20.65625 
z
" id="ArialMT-38"/>
      </defs>
      <g style="fill:#262626;" transform="translate(36.168 92.03671)scale(0.088 -0.088)">
       <use xlink:href="#ArialMT-30"/>
       <use x="55.615234" xlink:href="#ArialMT-2e"/>
       <use x="83.398438" xlink:href="#ArialMT-38"/>
      </g>
     </g>
    </g>
    <g id="text_7">
     <!-- $\Delta^{14}$C -->
     <defs>
      <path d="M 34.1875 63.1875 
L 14.15625 8.203125 
L 54.25 8.203125 
z
M 0.78125 0 
L 28.609375 72.90625 
L 39.796875 72.90625 
L 67.578125 0 
z
" id="DejaVuSans-394"/>
      <path d="M 12.40625 8.296875 
L 28.515625 8.296875 
L 28.515625 63.921875 
L 10.984375 60.40625 
L 10.984375 69.390625 
L 28.421875 72.90625 
L 38.28125 72.90625 
L 38.28125 8.296875 
L 54.390625 8.296875 
L 54.390625 0 
L 12.40625 0 
z
" id="DejaVuSans-31"/>
      <path d="M 37.796875 64.3125 
L 12.890625 25.390625 
L 37.796875 25.390625 
z
M 35.203125 72.90625 
L 47.609375 72.90625 
L 47.609375 25.390625 
L 58.015625 25.390625 
L 58.015625 17.1875 
L 47.609375 17.1875 
L 47.609375 0 
L 37.796875 0 
L 37.796875 17.1875 
L 4.890625 17.1875 
L 4.890625 26.703125 
z
" id="DejaVuSans-34"/>
     </defs>
     <g style="fill:#262626;" transform="translate(30.2441 179.281964)rotate(-90)scale(0.0968 -0.0968)">
      <use transform="translate(0 0.684375)" xlink:href="#DejaVuSans-394"/>
      <use transform="translate(69.365234 38.965625)scale(0.7)" xlink:href="#DejaVuSans-31"/>
      <use transform="translate(113.901367 38.965625)scale(0.7)" xlink:href="#DejaVuSans-34"/>
      <use transform="translate(161.171875 0.684375)" xlink:href="#ArialMT-43"/>
     </g>
    </g>
   </g>
   <g id="LineCollection_1">
    <path clip-path="url(#pc2f4646425)" d="M 283.735135 248.523477 
L 283.735135 236.663114 
" style="fill:none;stroke:#000000;stroke-width:1.4;"/>
    <path clip-path="url(#pc2f4646425)" d="M 274.435135 248.605615 
L 274.435135 236.745252 
" style="fill:none;stroke:#000000;stroke-width:1.4;"/>
    <path clip-path="url(#pc2f4646425)" d="M 167.108108 237.49864 
L 167.108108 225.638276 
" style="fill:none;stroke:#000000;stroke-width:1.4;"/>
    <path clip-path="url(#pc2f4646425)" d="M 165.097297 237.49864 
L 165.097297 225.638276 
" style="fill:none;stroke:#000000;stroke-width:1.4;"/>
    <path clip-path="url(#pc2f4646425)" d="M 140.213514 248.755429 
L 140.213514 236.895065 
" style="fill:none;stroke:#000000;stroke-width:1.4;"/>
    <path clip-path="url(#pc2f4646425)" d="M 302.586486 248.903878 
L 302.586486 237.043514 
" style="fill:none;stroke:#000000;stroke-width:1.4;"/>
    <path clip-path="url(#pc2f4646425)" d="M 269.408108 248.523463 
L 269.408108 236.663099 
" style="fill:none;stroke:#000000;stroke-width:1.4;"/>
    <path clip-path="url(#pc2f4646425)" d="M 156.048649 248.523462 
L 156.048649 236.663098 
" style="fill:none;stroke:#000000;stroke-width:1.4;"/>
    <path clip-path="url(#pc2f4646425)" d="M 181.183784 248.82896 
L 181.183784 236.968597 
" style="fill:none;stroke:#000000;stroke-width:1.4;"/>
    <path clip-path="url(#pc2f4646425)" d="M 219.891892 248.980241 
L 219.891892 237.119877 
" style="fill:none;stroke:#000000;stroke-width:1.4;"/>
    <path clip-path="url(#pc2f4646425)" d="M 186.462162 249.437148 
L 186.462162 237.576784 
" style="fill:none;stroke:#000000;stroke-width:1.4;"/>
    <path clip-path="url(#pc2f4646425)" d="M 265.889189 249.137058 
L 265.889189 237.276695 
" style="fill:none;stroke:#000000;stroke-width:1.4;"/>
    <path clip-path="url(#pc2f4646425)" d="M 157.556757 249.137045 
L 157.556757 237.276682 
" style="fill:none;stroke:#000000;stroke-width:1.4;"/>
    <path clip-path="url(#pc2f4646425)" d="M 241.256757 249.216663 
L 241.256757 237.3563 
" style="fill:none;stroke:#000000;stroke-width:1.4;"/>
    <path clip-path="url(#pc2f4646425)" d="M 186.713514 249.437148 
L 186.713514 237.576784 
" style="fill:none;stroke:#000000;stroke-width:1.4;"/>
    <path clip-path="url(#pc2f4646425)" d="M 314.4 248.829009 
L 314.4 236.968645 
" style="fill:none;stroke:#000000;stroke-width:1.4;"/>
    <path clip-path="url(#pc2f4646425)" d="M 125.132432 249.216664 
L 125.132432 237.356301 
" style="fill:none;stroke:#000000;stroke-width:1.4;"/>
    <path clip-path="url(#pc2f4646425)" d="M 267.648649 249.366916 
L 267.648649 237.506553 
" style="fill:none;stroke:#000000;stroke-width:1.4;"/>
    <path clip-path="url(#pc2f4646425)" d="M 274.435135 248.605615 
L 274.435135 236.745252 
" style="fill:none;stroke:#000000;stroke-width:1.4;"/>
   </g>
   <g id="line2d_29">
    <path clip-path="url(#pc2f4646425)" d="M 57.016216 248.376548 
L 146.355393 250.404128 
L 149.344436 251.000952 
L 153.661943 250.881735 
L 155.654638 251.01604 
L 158.311566 251.459873 
L 162.296956 251.346968 
L 165.950231 251.333127 
L 170.93197 251.259866 
L 174.585245 251.651323 
L 176.910056 251.898077 
L 185.545069 251.925245 
L 188.866228 251.631546 
L 191.19104 251.204937 
L 192.851619 249.832021 
L 194.180083 248.708908 
L 195.17643 246.548774 
L 197.501242 241.083252 
L 200.490285 231.697804 
L 203.479328 218.295415 
L 206.136255 203.007142 
L 206.468371 202.109848 
L 209.125298 204.843628 
L 209.457414 204.985007 
L 212.114341 203.365634 
L 212.446457 202.367891 
L 215.4355 174.55792 
L 218.424543 104.723529 
L 221.413587 81.901056 
L 224.734746 98.869943 
L 229.052252 117.506257 
L 231.044948 126.066337 
L 233.369759 135.070834 
L 233.701875 135.735877 
L 237.35515 140.148471 
L 239.679961 142.792358 
L 243.333236 150.123494 
L 245.658047 155.384279 
L 248.64709 164.397641 
L 251.636133 167.948508 
L 254.625177 173.979139 
L 259.274799 179.393957 
L 260.603263 181.01333 
L 263.592306 182.605248 
L 265.252885 185.82028 
L 269.238276 193.877046 
L 269.570392 194.558314 
L 270.234624 195.035034 
L 272.559435 196.223445 
L 273.223667 196.943674 
L 276.21271 200.401314 
L 282.190796 205.897121 
L 285.511955 207.749605 
L 288.833114 209.849794 
L 293.482737 212.564232 
L 296.803896 214.704984 
L 301.121402 217.698123 
L 303.446214 219.037183 
L 306.767373 220.541741 
L 309.756416 222.010149 
L 318.723545 225.596524 
L 323.705284 227.533776 
L 325.033747 228.208347 
L 327.358559 229.322032 
L 330.347602 230.047672 
L 339.314731 233.621195 
L 340.643195 234.535209 
L 343.632238 235.311215 
L 358.577453 238.436087 
L 359.905917 238.747597 
L 360.902264 239.335987 
L 361.898612 240.068782 
L 362.230728 240.103532 
L 363.559192 239.704959 
L 365.219771 240.887396 
L 366.548235 241.113308 
L 367.876698 242.950294 
L 368.208814 243.160953 
L 369.537278 242.709128 
L 371.529973 243.43959 
L 372.526321 243.465657 
L 373.522669 244.250582 
L 374.1869 244.716953 
L 375.515364 244.490589 
L 376.511712 244.868076 
L 377.175944 245.12696 
L 386.807305 245.108029 
L 388.8 245.108029 
L 388.8 245.108029 
" style="fill:none;stroke:#000000;stroke-linecap:round;stroke-width:1.4;"/>
   </g>
   <g id="line2d_30">
    <defs>
     <path d="M -2.8 2.8 
L 2.8 2.8 
L 2.8 -2.8 
L -2.8 -2.8 
z
" id="m3b3b5b112f"/>
    </defs>
    <g clip-path="url(#pc2f4646425)">
     <use style="fill:#ffffff;" x="283.735135" xlink:href="#m3b3b5b112f" y="242.593295"/>
     <use style="fill:#ffffff;" x="274.435135" xlink:href="#m3b3b5b112f" y="242.675433"/>
     <use style="fill:#ffffff;" x="167.108108" xlink:href="#m3b3b5b112f" y="231.568458"/>
     <use style="fill:#ffffff;" x="165.097297" xlink:href="#m3b3b5b112f" y="231.568458"/>
     <use style="fill:#ffffff;" x="140.213514" xlink:href="#m3b3b5b112f" y="242.825247"/>
     <use style="fill:#ffffff;" x="302.586486" xlink:href="#m3b3b5b112f" y="242.973696"/>
     <use style="fill:#ffffff;" x="269.408108" xlink:href="#m3b3b5b112f" y="242.593281"/>
     <use style="fill:#ffffff;" x="156.048649" xlink:href="#m3b3b5b112f" y="242.59328"/>
     <use style="fill:#ffffff;" x="181.183784" xlink:href="#m3b3b5b112f" y="242.898778"/>
     <use style="fill:#ffffff;" x="219.891892" xlink:href="#m3b3b5b112f" y="243.050059"/>
     <use style="fill:#ffffff;" x="186.462162" xlink:href="#m3b3b5b112f" y="243.506966"/>
     <use style="fill:#ffffff;" x="265.889189" xlink:href="#m3b3b5b112f" y="243.206877"/>
     <use style="fill:#ffffff;" x="157.556757" xlink:href="#m3b3b5b112f" y="243.206864"/>
     <use style="fill:#ffffff;" x="241.256757" xlink:href="#m3b3b5b112f" y="243.286481"/>
     <use style="fill:#ffffff;" x="186.713514" xlink:href="#m3b3b5b112f" y="243.506966"/>
     <use style="fill:#ffffff;" x="314.4" xlink:href="#m3b3b5b112f" y="242.898827"/>
     <use style="fill:#ffffff;" x="125.132432" xlink:href="#m3b3b5b112f" y="243.286483"/>
     <use style="fill:#ffffff;" x="267.648649" xlink:href="#m3b3b5b112f" y="243.436735"/>
     <use style="fill:#ffffff;" x="274.435135" xlink:href="#m3b3b5b112f" y="242.675433"/>
    </g>
   </g>
   <g id="line2d_31">
    <defs>
     <path d="M 0 2.8 
C 0.742569 2.8 1.454824 2.504974 1.979899 1.979899 
C 2.504974 1.454824 2.8 0.742569 2.8 0 
C 2.8 -0.742569 2.504974 -1.454824 1.979899 -1.979899 
C 1.454824 -2.504974 0.742569 -2.8 0 -2.8 
C -0.742569 -2.8 -1.454824 -2.504974 -1.979899 -1.979899 
C -2.504974 -1.454824 -2.8 -0.742569 -2.8 0 
C -2.8 0.742569 -2.504974 1.454824 -1.979899 1.979899 
C -1.454824 2.504974 -0.742569 2.8 0 2.8 
z
" id="m514d0c651c"/>
    </defs>
    <g clip-path="url(#pc2f4646425)">
     <use x="283.735135" xlink:href="#m514d0c651c" y="239.052071"/>
     <use x="274.435135" xlink:href="#m514d0c651c" y="243.306175"/>
     <use x="167.108108" xlink:href="#m514d0c651c" y="232.199726"/>
     <use x="165.097297" xlink:href="#m514d0c651c" y="229.165469"/>
     <use x="140.213514" xlink:href="#m514d0c651c" y="238.872905"/>
     <use x="302.586486" xlink:href="#m514d0c651c" y="243.353984"/>
     <use x="269.408108" xlink:href="#m514d0c651c" y="241.925498"/>
     <use x="156.048649" xlink:href="#m514d0c651c" y="233.682545"/>
     <use x="181.183784" xlink:href="#m514d0c651c" y="243.526647"/>
     <use x="219.891892" xlink:href="#m514d0c651c" y="241.490618"/>
     <use x="186.462162" xlink:href="#m514d0c651c" y="239.197615"/>
     <use x="265.889189" xlink:href="#m514d0c651c" y="237.220887"/>
     <use x="157.556757" xlink:href="#m514d0c651c" y="232.022095"/>
     <use x="241.256757" xlink:href="#m514d0c651c" y="237.584722"/>
     <use x="186.713514" xlink:href="#m514d0c651c" y="239.290237"/>
     <use x="314.4" xlink:href="#m514d0c651c" y="241.755034"/>
     <use x="125.132432" xlink:href="#m514d0c651c" y="240.699927"/>
     <use x="267.648649" xlink:href="#m514d0c651c" y="236.667404"/>
     <use x="274.435135" xlink:href="#m514d0c651c" y="240.541789"/>
    </g>
   </g>
   <g id="line2d_32">
    <defs>
     <path d="M 0 2.8 
C 0.742569 2.8 1.454824 2.504974 1.979899 1.979899 
C 2.504974 1.454824 2.8 0.742569 2.8 0 
C 2.8 -0.742569 2.504974 -1.454824 1.979899 -1.979899 
C 1.454824 -2.504974 0.742569 -2.8 0 -2.8 
C -0.742569 -2.8 -1.454824 -2.504974 -1.979899 -1.979899 
C -2.504974 -1.454824 -2.8 -0.742569 -2.8 0 
C -2.8 0.742569 -2.504974 1.454824 -1.979899 1.979899 
C -1.454824 2.504974 -0.742569 2.8 0 2.8 
z
" id="mbfe2e1a025"/>
    </defs>
    <g clip-path="url(#pc2f4646425)">
     <use style="fill:#ff0000;" x="167.108108" xlink:href="#mbfe2e1a025" y="232.199726"/>
     <use style="fill:#ff0000;" x="165.097297" xlink:href="#mbfe2e1a025" y="229.165469"/>
    </g>
   </g>
   <g id="patch_3">
    <path d="M 54 266.792727 
L 54 69.12 
" style="fill:none;"/>
   </g>
   <g id="patch_4">
    <path d="M 388.8 266.792727 
L 388.8 69.12 
" style="fill:none;"/>
   </g>
   <g id="patch_5">
    <path d="M 54 266.792727 
L 388.8 266.792727 
" style="fill:none;"/>
   </g>
   <g id="patch_6">
    <path d="M 54 69.12 
L 388.8 69.12 
" style="fill:none;"/>
   </g>
   <g id="legend_1">
    <g id="line2d_33">
     <path d="M 235.92475 80.258875 
L 253.52475 80.258875 
" style="fill:none;stroke:#000000;stroke-linecap:round;stroke-width:1.4;"/>
    </g>
    <g id="line2d_34"/>
    <g id="text_8">
     <!-- Atmosphere -->
     <defs>
      <path d="M -0.140625 0 
L 27.34375 71.578125 
L 37.546875 71.578125 
L 66.84375 0 
L 56.0625 0 
L 47.703125 21.6875 
L 17.78125 21.6875 
L 9.90625 0 
z
M 20.515625 29.390625 
L 44.78125 29.390625 
L 37.3125 49.21875 
Q 33.890625 58.25 32.234375 64.0625 
Q 30.859375 57.171875 28.375 50.390625 
z
" id="ArialMT-41"/>
      <path d="M 25.78125 7.859375 
L 27.046875 0.09375 
Q 23.34375 -0.6875 20.40625 -0.6875 
Q 15.625 -0.6875 12.984375 0.828125 
Q 10.359375 2.34375 9.28125 4.8125 
Q 8.203125 7.28125 8.203125 15.1875 
L 8.203125 45.015625 
L 1.765625 45.015625 
L 1.765625 51.859375 
L 8.203125 51.859375 
L 8.203125 64.703125 
L 16.9375 69.96875 
L 16.9375 51.859375 
L 25.78125 51.859375 
L 25.78125 45.015625 
L 16.9375 45.015625 
L 16.9375 14.703125 
Q 16.9375 10.9375 17.40625 9.859375 
Q 17.875 8.796875 18.921875 8.15625 
Q 19.96875 7.515625 21.921875 7.515625 
Q 23.390625 7.515625 25.78125 7.859375 
z
" id="ArialMT-74"/>
      <path d="M 6.59375 0 
L 6.59375 51.859375 
L 14.453125 51.859375 
L 14.453125 44.578125 
Q 16.890625 48.390625 20.9375 50.703125 
Q 25 53.03125 30.171875 53.03125 
Q 35.9375 53.03125 39.625 50.640625 
Q 43.3125 48.25 44.828125 43.953125 
Q 50.984375 53.03125 60.84375 53.03125 
Q 68.5625 53.03125 72.703125 48.75 
Q 76.859375 44.484375 76.859375 35.59375 
L 76.859375 0 
L 68.109375 0 
L 68.109375 32.671875 
Q 68.109375 37.9375 67.25 40.25 
Q 66.40625 42.578125 64.15625 43.984375 
Q 61.921875 45.40625 58.890625 45.40625 
Q 53.421875 45.40625 49.796875 41.765625 
Q 46.1875 38.140625 46.1875 30.125 
L 46.1875 0 
L 37.40625 0 
L 37.40625 33.6875 
Q 37.40625 39.546875 35.25 42.46875 
Q 33.109375 45.40625 28.21875 45.40625 
Q 24.515625 45.40625 21.359375 43.453125 
Q 18.21875 41.5 16.796875 37.734375 
Q 15.375 33.984375 15.375 26.90625 
L 15.375 0 
z
" id="ArialMT-6d"/>
      <path d="M 3.328125 25.921875 
Q 3.328125 40.328125 11.328125 47.265625 
Q 18.015625 53.03125 27.640625 53.03125 
Q 38.328125 53.03125 45.109375 46.015625 
Q 51.90625 39.015625 51.90625 26.65625 
Q 51.90625 16.65625 48.90625 10.90625 
Q 45.90625 5.171875 40.15625 2 
Q 34.421875 -1.171875 27.640625 -1.171875 
Q 16.75 -1.171875 10.03125 5.8125 
Q 3.328125 12.796875 3.328125 25.921875 
z
M 12.359375 25.921875 
Q 12.359375 15.96875 16.703125 11.015625 
Q 21.046875 6.0625 27.640625 6.0625 
Q 34.1875 6.0625 38.53125 11.03125 
Q 42.875 16.015625 42.875 26.21875 
Q 42.875 35.84375 38.5 40.796875 
Q 34.125 45.75 27.640625 45.75 
Q 21.046875 45.75 16.703125 40.8125 
Q 12.359375 35.890625 12.359375 25.921875 
z
" id="ArialMT-6f"/>
      <path d="M 3.078125 15.484375 
L 11.765625 16.84375 
Q 12.5 11.625 15.84375 8.84375 
Q 19.1875 6.0625 25.203125 6.0625 
Q 31.25 6.0625 34.171875 8.515625 
Q 37.109375 10.984375 37.109375 14.3125 
Q 37.109375 17.28125 34.515625 19 
Q 32.71875 20.171875 25.53125 21.96875 
Q 15.875 24.421875 12.140625 26.203125 
Q 8.40625 27.984375 6.46875 31.125 
Q 4.546875 34.28125 4.546875 38.09375 
Q 4.546875 41.546875 6.125 44.5 
Q 7.71875 47.46875 10.453125 49.421875 
Q 12.5 50.921875 16.03125 51.96875 
Q 19.578125 53.03125 23.640625 53.03125 
Q 29.734375 53.03125 34.34375 51.265625 
Q 38.96875 49.515625 41.15625 46.5 
Q 43.359375 43.5 44.1875 38.484375 
L 35.59375 37.3125 
Q 35.015625 41.3125 32.203125 43.546875 
Q 29.390625 45.796875 24.265625 45.796875 
Q 18.21875 45.796875 15.625 43.796875 
Q 13.03125 41.796875 13.03125 39.109375 
Q 13.03125 37.40625 14.109375 36.03125 
Q 15.1875 34.625 17.484375 33.6875 
Q 18.796875 33.203125 25.25 31.453125 
Q 34.578125 28.953125 38.25 27.359375 
Q 41.9375 25.78125 44.03125 22.75 
Q 46.140625 19.734375 46.140625 15.234375 
Q 46.140625 10.84375 43.578125 6.953125 
Q 41.015625 3.078125 36.171875 0.953125 
Q 31.34375 -1.171875 25.25 -1.171875 
Q 15.140625 -1.171875 9.84375 3.03125 
Q 4.546875 7.234375 3.078125 15.484375 
z
" id="ArialMT-73"/>
      <path d="M 6.59375 -19.875 
L 6.59375 51.859375 
L 14.59375 51.859375 
L 14.59375 45.125 
Q 17.4375 49.078125 21 51.046875 
Q 24.5625 53.03125 29.640625 53.03125 
Q 36.28125 53.03125 41.359375 49.609375 
Q 46.4375 46.1875 49.015625 39.953125 
Q 51.609375 33.734375 51.609375 26.3125 
Q 51.609375 18.359375 48.75 11.984375 
Q 45.90625 5.609375 40.453125 2.21875 
Q 35.015625 -1.171875 29 -1.171875 
Q 24.609375 -1.171875 21.109375 0.6875 
Q 17.625 2.546875 15.375 5.375 
L 15.375 -19.875 
z
M 14.546875 25.640625 
Q 14.546875 15.625 18.59375 10.84375 
Q 22.65625 6.0625 28.421875 6.0625 
Q 34.28125 6.0625 38.453125 11.015625 
Q 42.625 15.96875 42.625 26.375 
Q 42.625 36.28125 38.546875 41.203125 
Q 34.46875 46.140625 28.8125 46.140625 
Q 23.1875 46.140625 18.859375 40.890625 
Q 14.546875 35.640625 14.546875 25.640625 
z
" id="ArialMT-70"/>
      <path d="M 6.59375 0 
L 6.59375 71.578125 
L 15.375 71.578125 
L 15.375 45.90625 
Q 21.53125 53.03125 30.90625 53.03125 
Q 36.671875 53.03125 40.921875 50.75 
Q 45.171875 48.484375 47 44.484375 
Q 48.828125 40.484375 48.828125 32.859375 
L 48.828125 0 
L 40.046875 0 
L 40.046875 32.859375 
Q 40.046875 39.453125 37.1875 42.453125 
Q 34.328125 45.453125 29.109375 45.453125 
Q 25.203125 45.453125 21.75 43.421875 
Q 18.3125 41.40625 16.84375 37.9375 
Q 15.375 34.46875 15.375 28.375 
L 15.375 0 
z
" id="ArialMT-68"/>
     </defs>
     <g style="fill:#262626;" transform="translate(260.56475 83.338875)scale(0.088 -0.088)">
      <use xlink:href="#ArialMT-41"/>
      <use x="66.699219" xlink:href="#ArialMT-74"/>
      <use x="94.482422" xlink:href="#ArialMT-6d"/>
      <use x="177.783203" xlink:href="#ArialMT-6f"/>
      <use x="233.398438" xlink:href="#ArialMT-73"/>
      <use x="283.398438" xlink:href="#ArialMT-70"/>
      <use x="339.013672" xlink:href="#ArialMT-68"/>
      <use x="394.628906" xlink:href="#ArialMT-65"/>
      <use x="450.244141" xlink:href="#ArialMT-72"/>
      <use x="483.544922" xlink:href="#ArialMT-65"/>
     </g>
    </g>
    <g id="LineCollection_2">
     <path d="M 244.72475 97.10675 
L 244.72475 88.30675 
" style="fill:none;stroke:#000000;stroke-width:1.4;"/>
    </g>
    <g id="line2d_35"/>
    <g id="line2d_36">
     <g>
      <use style="fill:#ffffff;" x="244.72475" xlink:href="#m3b3b5b112f" y="92.70675"/>
     </g>
    </g>
    <g id="text_9">
     <!-- Scenario L1 -->
     <defs>
      <path d="M 4.5 23 
L 13.421875 23.78125 
Q 14.0625 18.40625 16.375 14.96875 
Q 18.703125 11.53125 23.578125 9.40625 
Q 28.46875 7.28125 34.578125 7.28125 
Q 39.984375 7.28125 44.140625 8.890625 
Q 48.296875 10.5 50.3125 13.296875 
Q 52.34375 16.109375 52.34375 19.4375 
Q 52.34375 22.796875 50.390625 25.3125 
Q 48.4375 27.828125 43.953125 29.546875 
Q 41.0625 30.671875 31.203125 33.03125 
Q 21.34375 35.40625 17.390625 37.5 
Q 12.25 40.1875 9.734375 44.15625 
Q 7.234375 48.140625 7.234375 53.078125 
Q 7.234375 58.5 10.296875 63.203125 
Q 13.375 67.921875 19.28125 70.359375 
Q 25.203125 72.796875 32.421875 72.796875 
Q 40.375 72.796875 46.453125 70.234375 
Q 52.546875 67.671875 55.8125 62.6875 
Q 59.078125 57.71875 59.328125 51.421875 
L 50.25 50.734375 
Q 49.515625 57.515625 45.28125 60.984375 
Q 41.0625 64.453125 32.8125 64.453125 
Q 24.21875 64.453125 20.28125 61.296875 
Q 16.359375 58.15625 16.359375 53.71875 
Q 16.359375 49.859375 19.140625 47.359375 
Q 21.875 44.875 33.421875 42.265625 
Q 44.96875 39.65625 49.265625 37.703125 
Q 55.515625 34.8125 58.484375 30.390625 
Q 61.46875 25.984375 61.46875 20.21875 
Q 61.46875 14.5 58.203125 9.4375 
Q 54.9375 4.390625 48.796875 1.578125 
Q 42.671875 -1.21875 35.015625 -1.21875 
Q 25.296875 -1.21875 18.71875 1.609375 
Q 12.15625 4.4375 8.421875 10.125 
Q 4.6875 15.828125 4.5 23 
z
" id="ArialMT-53"/>
      <path d="M 40.4375 19 
L 49.078125 17.875 
Q 47.65625 8.9375 41.8125 3.875 
Q 35.984375 -1.171875 27.484375 -1.171875 
Q 16.84375 -1.171875 10.375 5.78125 
Q 3.90625 12.75 3.90625 25.734375 
Q 3.90625 34.125 6.6875 40.421875 
Q 9.46875 46.734375 15.15625 49.875 
Q 20.84375 53.03125 27.546875 53.03125 
Q 35.984375 53.03125 41.359375 48.75 
Q 46.734375 44.484375 48.25 36.625 
L 39.703125 35.296875 
Q 38.484375 40.53125 35.375 43.15625 
Q 32.28125 45.796875 27.875 45.796875 
Q 21.234375 45.796875 17.078125 41.03125 
Q 12.9375 36.28125 12.9375 25.984375 
Q 12.9375 15.53125 16.9375 10.796875 
Q 20.953125 6.0625 27.390625 6.0625 
Q 32.5625 6.0625 36.03125 9.234375 
Q 39.5 12.40625 40.4375 19 
z
" id="ArialMT-63"/>
      <path d="M 6.640625 61.46875 
L 6.640625 71.578125 
L 15.4375 71.578125 
L 15.4375 61.46875 
z
M 6.640625 0 
L 6.640625 51.859375 
L 15.4375 51.859375 
L 15.4375 0 
z
" id="ArialMT-69"/>
      <path d="M 7.328125 0 
L 7.328125 71.578125 
L 16.796875 71.578125 
L 16.796875 8.453125 
L 52.046875 8.453125 
L 52.046875 0 
z
" id="ArialMT-4c"/>
      <path d="M 37.25 0 
L 28.46875 0 
L 28.46875 56 
Q 25.296875 52.984375 20.140625 49.953125 
Q 14.984375 46.921875 10.890625 45.40625 
L 10.890625 53.90625 
Q 18.265625 57.375 23.78125 62.296875 
Q 29.296875 67.234375 31.59375 71.875 
L 37.25 71.875 
z
" id="ArialMT-31"/>
     </defs>
     <g style="fill:#262626;" transform="translate(260.56475 95.78675)scale(0.088 -0.088)">
      <use xlink:href="#ArialMT-53"/>
      <use x="66.699219" xlink:href="#ArialMT-63"/>
      <use x="116.699219" xlink:href="#ArialMT-65"/>
      <use x="172.314453" xlink:href="#ArialMT-6e"/>
      <use x="227.929688" xlink:href="#ArialMT-61"/>
      <use x="283.544922" xlink:href="#ArialMT-72"/>
      <use x="316.845703" xlink:href="#ArialMT-69"/>
      <use x="339.0625" xlink:href="#ArialMT-6f"/>
      <use x="394.677734" xlink:href="#ArialMT-20"/>
      <use x="422.460938" xlink:href="#ArialMT-4c"/>
      <use x="478.076172" xlink:href="#ArialMT-31"/>
     </g>
    </g>
    <g id="line2d_37"/>
    <g id="line2d_38">
     <g>
      <use x="244.72475" xlink:href="#m514d0c651c" y="105.261875"/>
     </g>
    </g>
    <g id="text_10">
     <!-- Hepato DNA (coll after 2015) -->
     <defs>
      <path d="M 8.015625 0 
L 8.015625 71.578125 
L 17.484375 71.578125 
L 17.484375 42.1875 
L 54.6875 42.1875 
L 54.6875 71.578125 
L 64.15625 71.578125 
L 64.15625 0 
L 54.6875 0 
L 54.6875 33.734375 
L 17.484375 33.734375 
L 17.484375 0 
z
" id="ArialMT-48"/>
      <path d="M 7.71875 0 
L 7.71875 71.578125 
L 32.375 71.578125 
Q 40.71875 71.578125 45.125 70.5625 
Q 51.265625 69.140625 55.609375 65.4375 
Q 61.28125 60.640625 64.078125 53.1875 
Q 66.890625 45.75 66.890625 36.1875 
Q 66.890625 28.03125 64.984375 21.734375 
Q 63.09375 15.4375 60.109375 11.296875 
Q 57.125 7.171875 53.578125 4.796875 
Q 50.046875 2.4375 45.046875 1.21875 
Q 40.046875 0 33.546875 0 
z
M 17.1875 8.453125 
L 32.46875 8.453125 
Q 39.546875 8.453125 43.578125 9.765625 
Q 47.609375 11.078125 50 13.484375 
Q 53.375 16.84375 55.25 22.53125 
Q 57.125 28.21875 57.125 36.328125 
Q 57.125 47.5625 53.4375 53.59375 
Q 49.75 59.625 44.484375 61.671875 
Q 40.671875 63.140625 32.234375 63.140625 
L 17.1875 63.140625 
z
" id="ArialMT-44"/>
      <path d="M 7.625 0 
L 7.625 71.578125 
L 17.328125 71.578125 
L 54.9375 15.375 
L 54.9375 71.578125 
L 64.015625 71.578125 
L 64.015625 0 
L 54.296875 0 
L 16.703125 56.25 
L 16.703125 0 
z
" id="ArialMT-4e"/>
      <path d="M 23.390625 -21.046875 
Q 16.109375 -11.859375 11.078125 0.4375 
Q 6.0625 12.75 6.0625 25.921875 
Q 6.0625 37.546875 9.8125 48.1875 
Q 14.203125 60.546875 23.390625 72.796875 
L 29.6875 72.796875 
Q 23.78125 62.640625 21.875 58.296875 
Q 18.890625 51.5625 17.1875 44.234375 
Q 15.09375 35.109375 15.09375 25.875 
Q 15.09375 2.390625 29.6875 -21.046875 
z
" id="ArialMT-28"/>
      <path d="M 8.6875 0 
L 8.6875 45.015625 
L 0.921875 45.015625 
L 0.921875 51.859375 
L 8.6875 51.859375 
L 8.6875 57.375 
Q 8.6875 62.59375 9.625 65.140625 
Q 10.890625 68.5625 14.078125 70.671875 
Q 17.28125 72.796875 23.046875 72.796875 
Q 26.765625 72.796875 31.25 71.921875 
L 29.9375 64.265625 
Q 27.203125 64.75 24.75 64.75 
Q 20.75 64.75 19.09375 63.03125 
Q 17.4375 61.328125 17.4375 56.640625 
L 17.4375 51.859375 
L 27.546875 51.859375 
L 27.546875 45.015625 
L 17.4375 45.015625 
L 17.4375 0 
z
" id="ArialMT-66"/>
      <path d="M 4.15625 18.75 
L 13.375 19.53125 
Q 14.40625 12.796875 18.140625 9.390625 
Q 21.875 6 27.15625 6 
Q 33.5 6 37.890625 10.78125 
Q 42.28125 15.578125 42.28125 23.484375 
Q 42.28125 31 38.0625 35.34375 
Q 33.84375 39.703125 27 39.703125 
Q 22.75 39.703125 19.328125 37.765625 
Q 15.921875 35.84375 13.96875 32.765625 
L 5.71875 33.84375 
L 12.640625 70.609375 
L 48.25 70.609375 
L 48.25 62.203125 
L 19.671875 62.203125 
L 15.828125 42.96875 
Q 22.265625 47.46875 29.34375 47.46875 
Q 38.71875 47.46875 45.15625 40.96875 
Q 51.609375 34.46875 51.609375 24.265625 
Q 51.609375 14.546875 45.953125 7.46875 
Q 39.0625 -1.21875 27.15625 -1.21875 
Q 17.390625 -1.21875 11.203125 4.25 
Q 5.03125 9.71875 4.15625 18.75 
z
" id="ArialMT-35"/>
      <path d="M 12.359375 -21.046875 
L 6.0625 -21.046875 
Q 20.65625 2.390625 20.65625 25.875 
Q 20.65625 35.0625 18.5625 44.09375 
Q 16.890625 51.421875 13.921875 58.15625 
Q 12.015625 62.546875 6.0625 72.796875 
L 12.359375 72.796875 
Q 21.53125 60.546875 25.921875 48.1875 
Q 29.6875 37.546875 29.6875 25.921875 
Q 29.6875 12.75 24.625 0.4375 
Q 19.578125 -11.859375 12.359375 -21.046875 
z
" id="ArialMT-29"/>
     </defs>
     <g style="fill:#262626;" transform="translate(260.56475 108.341875)scale(0.088 -0.088)">
      <use xlink:href="#ArialMT-48"/>
      <use x="72.216797" xlink:href="#ArialMT-65"/>
      <use x="127.832031" xlink:href="#ArialMT-70"/>
      <use x="183.447266" xlink:href="#ArialMT-61"/>
      <use x="239.0625" xlink:href="#ArialMT-74"/>
      <use x="266.845703" xlink:href="#ArialMT-6f"/>
      <use x="322.460938" xlink:href="#ArialMT-20"/>
      <use x="350.244141" xlink:href="#ArialMT-44"/>
      <use x="422.460938" xlink:href="#ArialMT-4e"/>
      <use x="494.677734" xlink:href="#ArialMT-41"/>
      <use x="561.298828" xlink:href="#ArialMT-20"/>
      <use x="589.082031" xlink:href="#ArialMT-28"/>
      <use x="622.382812" xlink:href="#ArialMT-63"/>
      <use x="672.382812" xlink:href="#ArialMT-6f"/>
      <use x="727.998047" xlink:href="#ArialMT-6c"/>
      <use x="750.214844" xlink:href="#ArialMT-6c"/>
      <use x="772.431641" xlink:href="#ArialMT-20"/>
      <use x="800.214844" xlink:href="#ArialMT-61"/>
      <use x="855.830078" xlink:href="#ArialMT-66"/>
      <use x="883.613281" xlink:href="#ArialMT-74"/>
      <use x="911.396484" xlink:href="#ArialMT-65"/>
      <use x="967.011719" xlink:href="#ArialMT-72"/>
      <use x="1000.3125" xlink:href="#ArialMT-20"/>
      <use x="1028.095703" xlink:href="#ArialMT-32"/>
      <use x="1083.710938" xlink:href="#ArialMT-30"/>
      <use x="1139.326172" xlink:href="#ArialMT-31"/>
      <use x="1194.941406" xlink:href="#ArialMT-35"/>
      <use x="1250.556641" xlink:href="#ArialMT-29"/>
     </g>
    </g>
    <g id="line2d_39"/>
    <g id="line2d_40">
     <g>
      <use style="fill:#ff0000;" x="244.72475" xlink:href="#mbfe2e1a025" y="117.920125"/>
     </g>
    </g>
    <g id="text_11">
     <!-- Hepato DNA (coll before 2015) -->
     <defs>
      <path d="M 14.703125 0 
L 6.546875 0 
L 6.546875 71.578125 
L 15.328125 71.578125 
L 15.328125 46.046875 
Q 20.90625 53.03125 29.546875 53.03125 
Q 34.328125 53.03125 38.59375 51.09375 
Q 42.875 49.171875 45.625 45.671875 
Q 48.390625 42.1875 49.953125 37.25 
Q 51.515625 32.328125 51.515625 26.703125 
Q 51.515625 13.375 44.921875 6.09375 
Q 38.328125 -1.171875 29.109375 -1.171875 
Q 19.921875 -1.171875 14.703125 6.5 
z
M 14.59375 26.3125 
Q 14.59375 17 17.140625 12.84375 
Q 21.296875 6.0625 28.375 6.0625 
Q 34.125 6.0625 38.328125 11.0625 
Q 42.53125 16.0625 42.53125 25.984375 
Q 42.53125 36.140625 38.5 40.96875 
Q 34.46875 45.796875 28.765625 45.796875 
Q 23 45.796875 18.796875 40.796875 
Q 14.59375 35.796875 14.59375 26.3125 
z
" id="ArialMT-62"/>
     </defs>
     <g style="fill:#262626;" transform="translate(260.56475 121.000125)scale(0.088 -0.088)">
      <use xlink:href="#ArialMT-48"/>
      <use x="72.216797" xlink:href="#ArialMT-65"/>
      <use x="127.832031" xlink:href="#ArialMT-70"/>
      <use x="183.447266" xlink:href="#ArialMT-61"/>
      <use x="239.0625" xlink:href="#ArialMT-74"/>
      <use x="266.845703" xlink:href="#ArialMT-6f"/>
      <use x="322.460938" xlink:href="#ArialMT-20"/>
      <use x="350.244141" xlink:href="#ArialMT-44"/>
      <use x="422.460938" xlink:href="#ArialMT-4e"/>
      <use x="494.677734" xlink:href="#ArialMT-41"/>
      <use x="561.298828" xlink:href="#ArialMT-20"/>
      <use x="589.082031" xlink:href="#ArialMT-28"/>
      <use x="622.382812" xlink:href="#ArialMT-63"/>
      <use x="672.382812" xlink:href="#ArialMT-6f"/>
      <use x="727.998047" xlink:href="#ArialMT-6c"/>
      <use x="750.214844" xlink:href="#ArialMT-6c"/>
      <use x="772.431641" xlink:href="#ArialMT-20"/>
      <use x="800.214844" xlink:href="#ArialMT-62"/>
      <use x="855.830078" xlink:href="#ArialMT-65"/>
      <use x="911.445312" xlink:href="#ArialMT-66"/>
      <use x="939.228516" xlink:href="#ArialMT-6f"/>
      <use x="994.84375" xlink:href="#ArialMT-72"/>
      <use x="1028.144531" xlink:href="#ArialMT-65"/>
      <use x="1083.759766" xlink:href="#ArialMT-20"/>
      <use x="1111.542969" xlink:href="#ArialMT-32"/>
      <use x="1167.158203" xlink:href="#ArialMT-30"/>
      <use x="1222.773438" xlink:href="#ArialMT-31"/>
      <use x="1278.388672" xlink:href="#ArialMT-35"/>
      <use x="1334.003906" xlink:href="#ArialMT-29"/>
     </g>
    </g>
   </g>
  </g>
  <g id="axes_2">
   <g id="patch_7">
    <path d="M 54 504 
L 388.8 504 
L 388.8 306.327273 
L 54 306.327273 
z
" style="fill:#eaeaf2;"/>
   </g>
   <g id="matplotlib.axis_3">
    <g id="xtick_13">
     <g id="line2d_41">
      <path clip-path="url(#p12615e68e5)" d="M 87.178378 504 
L 87.178378 306.327273 
" style="fill:none;stroke:#ffffff;stroke-linecap:round;stroke-width:0.8;"/>
     </g>
     <g id="line2d_42"/>
     <g id="text_12">
      <!-- 1920 -->
      <defs>
       <path d="M 5.46875 16.546875 
L 13.921875 17.328125 
Q 14.984375 11.375 18.015625 8.6875 
Q 21.046875 6 25.78125 6 
Q 29.828125 6 32.875 7.859375 
Q 35.9375 9.71875 37.890625 12.8125 
Q 39.84375 15.921875 41.15625 21.1875 
Q 42.484375 26.46875 42.484375 31.9375 
Q 42.484375 32.515625 42.4375 33.6875 
Q 39.796875 29.5 35.234375 26.875 
Q 30.671875 24.265625 25.34375 24.265625 
Q 16.453125 24.265625 10.296875 30.703125 
Q 4.15625 37.15625 4.15625 47.703125 
Q 4.15625 58.59375 10.578125 65.234375 
Q 17 71.875 26.65625 71.875 
Q 33.640625 71.875 39.421875 68.109375 
Q 45.21875 64.359375 48.21875 57.390625 
Q 51.21875 50.4375 51.21875 37.25 
Q 51.21875 23.53125 48.234375 15.40625 
Q 45.265625 7.28125 39.375 3.03125 
Q 33.5 -1.21875 25.59375 -1.21875 
Q 17.1875 -1.21875 11.859375 3.4375 
Q 6.546875 8.109375 5.46875 16.546875 
z
M 41.453125 48.140625 
Q 41.453125 55.71875 37.421875 60.15625 
Q 33.40625 64.59375 27.734375 64.59375 
Q 21.875 64.59375 17.53125 59.8125 
Q 13.1875 55.03125 13.1875 47.40625 
Q 13.1875 40.578125 17.3125 36.296875 
Q 21.4375 32.03125 27.484375 32.03125 
Q 33.59375 32.03125 37.515625 36.296875 
Q 41.453125 40.578125 41.453125 48.140625 
z
" id="ArialMT-39"/>
      </defs>
      <g style="fill:#262626;" transform="translate(77.391128 515.898875)scale(0.088 -0.088)">
       <use xlink:href="#ArialMT-31"/>
       <use x="55.615234" xlink:href="#ArialMT-39"/>
       <use x="111.230469" xlink:href="#ArialMT-32"/>
       <use x="166.845703" xlink:href="#ArialMT-30"/>
      </g>
     </g>
    </g>
    <g id="xtick_14">
     <g id="line2d_43">
      <path clip-path="url(#p12615e68e5)" d="M 147.502703 504 
L 147.502703 306.327273 
" style="fill:none;stroke:#ffffff;stroke-linecap:round;stroke-width:0.8;"/>
     </g>
     <g id="line2d_44"/>
     <g id="text_13">
      <!-- 1940 -->
      <g style="fill:#262626;" transform="translate(137.715453 515.898875)scale(0.088 -0.088)">
       <use xlink:href="#ArialMT-31"/>
       <use x="55.615234" xlink:href="#ArialMT-39"/>
       <use x="111.230469" xlink:href="#ArialMT-34"/>
       <use x="166.845703" xlink:href="#ArialMT-30"/>
      </g>
     </g>
    </g>
    <g id="xtick_15">
     <g id="line2d_45">
      <path clip-path="url(#p12615e68e5)" d="M 207.827027 504 
L 207.827027 306.327273 
" style="fill:none;stroke:#ffffff;stroke-linecap:round;stroke-width:0.8;"/>
     </g>
     <g id="line2d_46"/>
     <g id="text_14">
      <!-- 1960 -->
      <g style="fill:#262626;" transform="translate(198.039777 515.898875)scale(0.088 -0.088)">
       <use xlink:href="#ArialMT-31"/>
       <use x="55.615234" xlink:href="#ArialMT-39"/>
       <use x="111.230469" xlink:href="#ArialMT-36"/>
       <use x="166.845703" xlink:href="#ArialMT-30"/>
      </g>
     </g>
    </g>
    <g id="xtick_16">
     <g id="line2d_47">
      <path clip-path="url(#p12615e68e5)" d="M 268.151351 504 
L 268.151351 306.327273 
" style="fill:none;stroke:#ffffff;stroke-linecap:round;stroke-width:0.8;"/>
     </g>
     <g id="line2d_48"/>
     <g id="text_15">
      <!-- 1980 -->
      <g style="fill:#262626;" transform="translate(258.364101 515.898875)scale(0.088 -0.088)">
       <use xlink:href="#ArialMT-31"/>
       <use x="55.615234" xlink:href="#ArialMT-39"/>
       <use x="111.230469" xlink:href="#ArialMT-38"/>
       <use x="166.845703" xlink:href="#ArialMT-30"/>
      </g>
     </g>
    </g>
    <g id="xtick_17">
     <g id="line2d_49">
      <path clip-path="url(#p12615e68e5)" d="M 328.475676 504 
L 328.475676 306.327273 
" style="fill:none;stroke:#ffffff;stroke-linecap:round;stroke-width:0.8;"/>
     </g>
     <g id="line2d_50"/>
     <g id="text_16">
      <!-- 2000 -->
      <g style="fill:#262626;" transform="translate(318.688426 515.898875)scale(0.088 -0.088)">
       <use xlink:href="#ArialMT-32"/>
       <use x="55.615234" xlink:href="#ArialMT-30"/>
       <use x="111.230469" xlink:href="#ArialMT-30"/>
       <use x="166.845703" xlink:href="#ArialMT-30"/>
      </g>
     </g>
    </g>
    <g id="xtick_18">
     <g id="line2d_51">
      <path clip-path="url(#p12615e68e5)" d="M 388.8 504 
L 388.8 306.327273 
" style="fill:none;stroke:#ffffff;stroke-linecap:round;stroke-width:0.8;"/>
     </g>
     <g id="line2d_52"/>
     <g id="text_17">
      <!-- 2020 -->
      <g style="fill:#262626;" transform="translate(379.01275 515.898875)scale(0.088 -0.088)">
       <use xlink:href="#ArialMT-32"/>
       <use x="55.615234" xlink:href="#ArialMT-30"/>
       <use x="111.230469" xlink:href="#ArialMT-32"/>
       <use x="166.845703" xlink:href="#ArialMT-30"/>
      </g>
     </g>
    </g>
    <g id="xtick_19">
     <g id="line2d_53"/>
    </g>
    <g id="xtick_20">
     <g id="line2d_54"/>
    </g>
    <g id="xtick_21">
     <g id="line2d_55"/>
    </g>
    <g id="xtick_22">
     <g id="line2d_56"/>
    </g>
    <g id="xtick_23">
     <g id="line2d_57"/>
    </g>
    <g id="xtick_24">
     <g id="line2d_58"/>
    </g>
    <g id="text_18">
     <!-- Calendar year -->
     <g style="fill:#262626;" transform="translate(191.001019 528.694612)scale(0.0968 -0.0968)">
      <use xlink:href="#ArialMT-43"/>
      <use x="72.216797" xlink:href="#ArialMT-61"/>
      <use x="127.832031" xlink:href="#ArialMT-6c"/>
      <use x="150.048828" xlink:href="#ArialMT-65"/>
      <use x="205.664062" xlink:href="#ArialMT-6e"/>
      <use x="261.279297" xlink:href="#ArialMT-64"/>
      <use x="316.894531" xlink:href="#ArialMT-61"/>
      <use x="372.509766" xlink:href="#ArialMT-72"/>
      <use x="405.810547" xlink:href="#ArialMT-20"/>
      <use x="433.59375" xlink:href="#ArialMT-79"/>
      <use x="483.59375" xlink:href="#ArialMT-65"/>
      <use x="539.208984" xlink:href="#ArialMT-61"/>
      <use x="594.824219" xlink:href="#ArialMT-72"/>
     </g>
    </g>
   </g>
   <g id="matplotlib.axis_4">
    <g id="ytick_6">
     <g id="line2d_59">
      <path clip-path="url(#p12615e68e5)" d="M 54 504 
L 388.8 504 
" style="fill:none;stroke:#ffffff;stroke-linecap:round;stroke-width:0.8;"/>
     </g>
     <g id="line2d_60"/>
     <g id="text_19">
      <!-- 0.00 -->
      <g style="fill:#262626;" transform="translate(31.274375 507.149437)scale(0.088 -0.088)">
       <use xlink:href="#ArialMT-30"/>
       <use x="55.615234" xlink:href="#ArialMT-2e"/>
       <use x="83.398438" xlink:href="#ArialMT-30"/>
       <use x="139.013672" xlink:href="#ArialMT-30"/>
      </g>
     </g>
    </g>
    <g id="ytick_7">
     <g id="line2d_61">
      <path clip-path="url(#p12615e68e5)" d="M 54 477.643636 
L 388.8 477.643636 
" style="fill:none;stroke:#ffffff;stroke-linecap:round;stroke-width:0.8;"/>
     </g>
     <g id="line2d_62"/>
     <g id="text_20">
      <!-- 0.02 -->
      <g style="fill:#262626;" transform="translate(31.274375 480.793074)scale(0.088 -0.088)">
       <use xlink:href="#ArialMT-30"/>
       <use x="55.615234" xlink:href="#ArialMT-2e"/>
       <use x="83.398438" xlink:href="#ArialMT-30"/>
       <use x="139.013672" xlink:href="#ArialMT-32"/>
      </g>
     </g>
    </g>
    <g id="ytick_8">
     <g id="line2d_63">
      <path clip-path="url(#p12615e68e5)" d="M 54 451.287273 
L 388.8 451.287273 
" style="fill:none;stroke:#ffffff;stroke-linecap:round;stroke-width:0.8;"/>
     </g>
     <g id="line2d_64"/>
     <g id="text_21">
      <!-- 0.04 -->
      <g style="fill:#262626;" transform="translate(31.274375 454.43671)scale(0.088 -0.088)">
       <use xlink:href="#ArialMT-30"/>
       <use x="55.615234" xlink:href="#ArialMT-2e"/>
       <use x="83.398438" xlink:href="#ArialMT-30"/>
       <use x="139.013672" xlink:href="#ArialMT-34"/>
      </g>
     </g>
    </g>
    <g id="ytick_9">
     <g id="line2d_65">
      <path clip-path="url(#p12615e68e5)" d="M 54 424.930909 
L 388.8 424.930909 
" style="fill:none;stroke:#ffffff;stroke-linecap:round;stroke-width:0.8;"/>
     </g>
     <g id="line2d_66"/>
     <g id="text_22">
      <!-- 0.06 -->
      <g style="fill:#262626;" transform="translate(31.274375 428.080347)scale(0.088 -0.088)">
       <use xlink:href="#ArialMT-30"/>
       <use x="55.615234" xlink:href="#ArialMT-2e"/>
       <use x="83.398438" xlink:href="#ArialMT-30"/>
       <use x="139.013672" xlink:href="#ArialMT-36"/>
      </g>
     </g>
    </g>
    <g id="ytick_10">
     <g id="line2d_67">
      <path clip-path="url(#p12615e68e5)" d="M 54 398.574545 
L 388.8 398.574545 
" style="fill:none;stroke:#ffffff;stroke-linecap:round;stroke-width:0.8;"/>
     </g>
     <g id="line2d_68"/>
     <g id="text_23">
      <!-- 0.08 -->
      <g style="fill:#262626;" transform="translate(31.274375 401.723983)scale(0.088 -0.088)">
       <use xlink:href="#ArialMT-30"/>
       <use x="55.615234" xlink:href="#ArialMT-2e"/>
       <use x="83.398438" xlink:href="#ArialMT-30"/>
       <use x="139.013672" xlink:href="#ArialMT-38"/>
      </g>
     </g>
    </g>
    <g id="ytick_11">
     <g id="line2d_69">
      <path clip-path="url(#p12615e68e5)" d="M 54 372.218182 
L 388.8 372.218182 
" style="fill:none;stroke:#ffffff;stroke-linecap:round;stroke-width:0.8;"/>
     </g>
     <g id="line2d_70"/>
     <g id="text_24">
      <!-- 0.10 -->
      <g style="fill:#262626;" transform="translate(31.274375 375.367619)scale(0.088 -0.088)">
       <use xlink:href="#ArialMT-30"/>
       <use x="55.615234" xlink:href="#ArialMT-2e"/>
       <use x="83.398438" xlink:href="#ArialMT-31"/>
       <use x="139.013672" xlink:href="#ArialMT-30"/>
      </g>
     </g>
    </g>
    <g id="ytick_12">
     <g id="line2d_71">
      <path clip-path="url(#p12615e68e5)" d="M 54 345.861818 
L 388.8 345.861818 
" style="fill:none;stroke:#ffffff;stroke-linecap:round;stroke-width:0.8;"/>
     </g>
     <g id="line2d_72"/>
     <g id="text_25">
      <!-- 0.12 -->
      <g style="fill:#262626;" transform="translate(31.274375 349.011256)scale(0.088 -0.088)">
       <use xlink:href="#ArialMT-30"/>
       <use x="55.615234" xlink:href="#ArialMT-2e"/>
       <use x="83.398438" xlink:href="#ArialMT-31"/>
       <use x="139.013672" xlink:href="#ArialMT-32"/>
      </g>
     </g>
    </g>
    <g id="ytick_13">
     <g id="line2d_73">
      <path clip-path="url(#p12615e68e5)" d="M 54 319.505455 
L 388.8 319.505455 
" style="fill:none;stroke:#ffffff;stroke-linecap:round;stroke-width:0.8;"/>
     </g>
     <g id="line2d_74"/>
     <g id="text_26">
      <!-- 0.14 -->
      <g style="fill:#262626;" transform="translate(31.274375 322.654892)scale(0.088 -0.088)">
       <use xlink:href="#ArialMT-30"/>
       <use x="55.615234" xlink:href="#ArialMT-2e"/>
       <use x="83.398438" xlink:href="#ArialMT-31"/>
       <use x="139.013672" xlink:href="#ArialMT-34"/>
      </g>
     </g>
    </g>
    <g id="text_27">
     <!-- $\Delta^{14}$C -->
     <g style="fill:#262626;" transform="translate(25.350475 416.489236)rotate(-90)scale(0.0968 -0.0968)">
      <use transform="translate(0 0.684375)" xlink:href="#DejaVuSans-394"/>
      <use transform="translate(69.365234 38.965625)scale(0.7)" xlink:href="#DejaVuSans-31"/>
      <use transform="translate(113.901367 38.965625)scale(0.7)" xlink:href="#DejaVuSans-34"/>
      <use transform="translate(161.171875 0.684375)" xlink:href="#ArialMT-43"/>
     </g>
    </g>
   </g>
   <g id="LineCollection_3">
    <path clip-path="url(#p12615e68e5)" d="M 283.735135 513.986818 
L 283.735135 434.917727 
" style="fill:none;stroke:#000000;stroke-width:1.4;"/>
    <path clip-path="url(#p12615e68e5)" d="M 274.435135 514.534404 
L 274.435135 435.465314 
" style="fill:none;stroke:#000000;stroke-width:1.4;"/>
    <path clip-path="url(#p12615e68e5)" d="M 167.108108 440.487903 
L 167.108108 361.418812 
" style="fill:none;stroke:#000000;stroke-width:1.4;"/>
    <path clip-path="url(#p12615e68e5)" d="M 165.097297 440.487903 
L 165.097297 361.418812 
" style="fill:none;stroke:#000000;stroke-width:1.4;"/>
    <path clip-path="url(#p12615e68e5)" d="M 140.213514 515.533161 
L 140.213514 436.46407 
" style="fill:none;stroke:#000000;stroke-width:1.4;"/>
    <path clip-path="url(#p12615e68e5)" d="M 302.586486 516.522823 
L 302.586486 437.453732 
" style="fill:none;stroke:#000000;stroke-width:1.4;"/>
    <path clip-path="url(#p12615e68e5)" d="M 269.408108 513.986721 
L 269.408108 434.91763 
" style="fill:none;stroke:#000000;stroke-width:1.4;"/>
    <path clip-path="url(#p12615e68e5)" d="M 156.048649 513.986715 
L 156.048649 434.917624 
" style="fill:none;stroke:#000000;stroke-width:1.4;"/>
    <path clip-path="url(#p12615e68e5)" d="M 181.183784 516.023371 
L 181.183784 436.95428 
" style="fill:none;stroke:#000000;stroke-width:1.4;"/>
    <path clip-path="url(#p12615e68e5)" d="M 219.891892 517.031908 
L 219.891892 437.962817 
" style="fill:none;stroke:#000000;stroke-width:1.4;"/>
    <path clip-path="url(#p12615e68e5)" d="M 186.462162 520.077953 
L 186.462162 441.008862 
" style="fill:none;stroke:#000000;stroke-width:1.4;"/>
    <path clip-path="url(#p12615e68e5)" d="M 265.889189 518.077358 
L 265.889189 439.008268 
" style="fill:none;stroke:#000000;stroke-width:1.4;"/>
    <path clip-path="url(#p12615e68e5)" d="M 157.556757 518.077272 
L 157.556757 439.008181 
" style="fill:none;stroke:#000000;stroke-width:1.4;"/>
    <path clip-path="url(#p12615e68e5)" d="M 241.256757 518.608058 
L 241.256757 439.538967 
" style="fill:none;stroke:#000000;stroke-width:1.4;"/>
    <path clip-path="url(#p12615e68e5)" d="M 186.713514 520.077954 
L 186.713514 441.008863 
" style="fill:none;stroke:#000000;stroke-width:1.4;"/>
    <path clip-path="url(#p12615e68e5)" d="M 314.4 516.023696 
L 314.4 436.954605 
" style="fill:none;stroke:#000000;stroke-width:1.4;"/>
    <path clip-path="url(#p12615e68e5)" d="M 125.132432 518.608066 
L 125.132432 439.538975 
" style="fill:none;stroke:#000000;stroke-width:1.4;"/>
    <path clip-path="url(#p12615e68e5)" d="M 267.648649 519.609746 
L 267.648649 440.540655 
" style="fill:none;stroke:#000000;stroke-width:1.4;"/>
    <path clip-path="url(#p12615e68e5)" d="M 274.435135 514.534404 
L 274.435135 435.465314 
" style="fill:none;stroke:#000000;stroke-width:1.4;"/>
   </g>
   <g id="line2d_75">
    <path clip-path="url(#p12615e68e5)" d="M 57.016216 513.007287 
L 135.395569 524.419903 
L 146.023277 526.012266 
L 149.01232 530.6194 
L 152.001364 529.574643 
L 154.990407 529.824619 
L 155.986754 531.024705 
L 157.97945 533.549533 
L 158.311566 533.562791 
L 160.968493 532.634118 
L 161.632725 532.694007 
L 164.289652 533.08058 
L 170.267738 531.881154 
L 173.256781 533.504155 
L 176.245824 536.42611 
L 180.231215 536.681891 
L 184.548722 536.784981 
L 185.212953 536.810375 
L 188.201997 535.504429 
L 191.19104 531.863214 
L 192.187387 526.454158 
L 194.180083 515.223022 
L 195.17643 500.822132 
L 197.501242 464.385317 
L 200.490285 401.815666 
L 203.479328 312.466406 
L 206.136255 210.54458 
L 206.468371 204.562622 
L 209.125298 222.787823 
L 209.457414 223.730347 
L 212.114341 212.934527 
L 212.446457 206.282909 
L 215.4355 20.883106 
L 215.574705 -1 
M 253.273703 -1 
L 254.625177 17.024563 
L 258.942683 50.424394 
L 260.603263 63.919169 
L 263.592306 74.531959 
L 265.252885 95.9655 
L 268.90616 145.135486 
L 269.570392 154.219065 
L 269.902508 156.265377 
L 272.559435 165.319936 
L 273.223667 170.121464 
L 275.880594 191.126417 
L 280.530217 220.407044 
L 281.85868 228.650267 
L 284.847723 239.20086 
L 288.168882 253.695475 
L 292.154273 268.918649 
L 295.143316 281.347495 
L 297.800243 293.31794 
L 300.457171 305.69844 
L 303.114098 316.468339 
L 306.103141 325.120231 
L 309.092184 335.402972 
L 314.073923 349.402119 
L 315.402386 353.014576 
L 322.044704 369.557218 
L 324.0374 375.026559 
L 327.026443 385.483822 
L 330.015486 389.958666 
L 338.982615 413.071733 
L 340.643195 420.731698 
L 342.303774 423.812864 
L 343.964354 426.384779 
L 344.960701 427.933891 
L 346.953397 431.196708 
L 347.617628 432.096783 
L 348.946092 433.648028 
L 350.938787 436.510018 
L 359.573801 448.086808 
L 359.905917 448.814284 
L 360.570149 451.10845 
L 361.898612 457.622186 
L 362.230728 457.853851 
L 363.559192 455.196694 
L 364.887655 462.059381 
L 365.219771 463.079607 
L 366.548235 464.585687 
L 367.876698 476.832263 
L 368.208814 478.236654 
L 369.537278 475.224492 
L 370.20151 477.170609 
L 371.197857 480.036312 
L 372.526321 480.268017 
L 373.190553 483.639785 
L 374.1869 488.609988 
L 375.515364 487.100895 
L 375.84748 487.702091 
L 377.175944 491.343372 
L 379.832871 491.217164 
L 388.8 491.217164 
L 388.8 491.217164 
" style="fill:none;stroke:#000000;stroke-linecap:round;stroke-width:1.4;"/>
   </g>
   <g id="line2d_76">
    <g clip-path="url(#p12615e68e5)">
     <use style="fill:#ffffff;" x="283.735135" xlink:href="#m3b3b5b112f" y="474.452272"/>
     <use style="fill:#ffffff;" x="274.435135" xlink:href="#m3b3b5b112f" y="474.999859"/>
     <use style="fill:#ffffff;" x="167.108108" xlink:href="#m3b3b5b112f" y="400.953358"/>
     <use style="fill:#ffffff;" x="165.097297" xlink:href="#m3b3b5b112f" y="400.953357"/>
     <use style="fill:#ffffff;" x="140.213514" xlink:href="#m3b3b5b112f" y="475.998616"/>
     <use style="fill:#ffffff;" x="302.586486" xlink:href="#m3b3b5b112f" y="476.988277"/>
     <use style="fill:#ffffff;" x="269.408108" xlink:href="#m3b3b5b112f" y="474.452176"/>
     <use style="fill:#ffffff;" x="156.048649" xlink:href="#m3b3b5b112f" y="474.452169"/>
     <use style="fill:#ffffff;" x="181.183784" xlink:href="#m3b3b5b112f" y="476.488826"/>
     <use style="fill:#ffffff;" x="219.891892" xlink:href="#m3b3b5b112f" y="477.497362"/>
     <use style="fill:#ffffff;" x="186.462162" xlink:href="#m3b3b5b112f" y="480.543408"/>
     <use style="fill:#ffffff;" x="265.889189" xlink:href="#m3b3b5b112f" y="478.542813"/>
     <use style="fill:#ffffff;" x="157.556757" xlink:href="#m3b3b5b112f" y="478.542727"/>
     <use style="fill:#ffffff;" x="241.256757" xlink:href="#m3b3b5b112f" y="479.073513"/>
     <use style="fill:#ffffff;" x="186.713514" xlink:href="#m3b3b5b112f" y="480.543409"/>
     <use style="fill:#ffffff;" x="314.4" xlink:href="#m3b3b5b112f" y="476.48915"/>
     <use style="fill:#ffffff;" x="125.132432" xlink:href="#m3b3b5b112f" y="479.073521"/>
     <use style="fill:#ffffff;" x="267.648649" xlink:href="#m3b3b5b112f" y="480.0752"/>
     <use style="fill:#ffffff;" x="274.435135" xlink:href="#m3b3b5b112f" y="474.999859"/>
    </g>
   </g>
   <g id="line2d_77">
    <g clip-path="url(#p12615e68e5)">
     <use x="283.735135" xlink:href="#m514d0c651c" y="450.844112"/>
     <use x="274.435135" xlink:href="#m514d0c651c" y="479.204805"/>
     <use x="167.108108" xlink:href="#m514d0c651c" y="405.161811"/>
     <use x="165.097297" xlink:href="#m514d0c651c" y="384.933429"/>
     <use x="140.213514" xlink:href="#m514d0c651c" y="449.649667"/>
     <use x="302.586486" xlink:href="#m514d0c651c" y="479.523527"/>
     <use x="269.408108" xlink:href="#m514d0c651c" y="470.000291"/>
     <use x="156.048649" xlink:href="#m514d0c651c" y="415.047273"/>
     <use x="181.183784" xlink:href="#m514d0c651c" y="480.674618"/>
     <use x="219.891892" xlink:href="#m514d0c651c" y="467.101091"/>
     <use x="186.462162" xlink:href="#m514d0c651c" y="451.8144"/>
     <use x="265.889189" xlink:href="#m514d0c651c" y="438.636218"/>
     <use x="157.556757" xlink:href="#m514d0c651c" y="403.9776"/>
     <use x="241.256757" xlink:href="#m514d0c651c" y="441.061785"/>
     <use x="186.713514" xlink:href="#m514d0c651c" y="452.431881"/>
     <use x="314.4" xlink:href="#m514d0c651c" y="468.863863"/>
     <use x="125.132432" xlink:href="#m514d0c651c" y="461.829818"/>
     <use x="267.648649" xlink:href="#m514d0c651c" y="434.946327"/>
     <use x="274.435135" xlink:href="#m514d0c651c" y="460.775564"/>
    </g>
   </g>
   <g id="line2d_78">
    <g clip-path="url(#p12615e68e5)">
     <use style="fill:#ff0000;" x="167.108108" xlink:href="#mbfe2e1a025" y="405.161811"/>
     <use style="fill:#ff0000;" x="165.097297" xlink:href="#mbfe2e1a025" y="384.933429"/>
    </g>
   </g>
   <g id="patch_8">
    <path d="M 54 504 
L 54 306.327273 
" style="fill:none;"/>
   </g>
   <g id="patch_9">
    <path d="M 388.8 504 
L 388.8 306.327273 
" style="fill:none;"/>
   </g>
   <g id="patch_10">
    <path d="M 54 504 
L 388.8 504 
" style="fill:none;"/>
   </g>
   <g id="patch_11">
    <path d="M 54 306.327273 
L 388.8 306.327273 
" style="fill:none;"/>
   </g>
  </g>
 </g>
 <defs>
  <clipPath id="pc2f4646425">
   <rect height="197.672727" width="334.8" x="54" y="69.12"/>
  </clipPath>
  <clipPath id="p12615e68e5">
   <rect height="197.672727" width="334.8" x="54" y="306.327273"/>
  </clipPath>
 </defs>
</svg>
