<?xml version="1.0" encoding="utf-8" standalone="no"?>
<!DOCTYPE svg PUBLIC "-//W3C//DTD SVG 1.1//EN"
  "http://www.w3.org/Graphics/SVG/1.1/DTD/svg11.dtd">
<!-- Created with matplotlib (http://matplotlib.org/) -->
<svg height="576pt" version="1.1" viewBox="0 0 864 576" width="864pt" xmlns="http://www.w3.org/2000/svg" xmlns:xlink="http://www.w3.org/1999/xlink">
 <defs>
  <style type="text/css">
*{stroke-linecap:butt;stroke-linejoin:round;}
  </style>
 </defs>
 <g id="figure_1">
  <g id="patch_1">
   <path d="M 0 576 
L 864 576 
L 864 0 
L 0 0 
z
" style="fill:#ffffff;"/>
  </g>
  <g id="axes_1">
   <g id="patch_2">
    <path d="M 108 266.792727 
L 777.6 266.792727 
L 777.6 69.12 
L 108 69.12 
z
" style="fill:#eaeaf2;"/>
   </g>
   <g id="matplotlib.axis_1">
    <g id="xtick_1">
     <g id="line2d_1">
      <path clip-path="url(#ped17d82535)" d="M 174.356757 266.792727 
L 174.356757 69.12 
" style="fill:none;stroke:#ffffff;stroke-linecap:round;stroke-width:1.3;"/>
     </g>
     <g id="line2d_2"/>
    </g>
    <g id="xtick_2">
     <g id="line2d_3">
      <path clip-path="url(#ped17d82535)" d="M 295.005405 266.792727 
L 295.005405 69.12 
" style="fill:none;stroke:#ffffff;stroke-linecap:round;stroke-width:1.3;"/>
     </g>
     <g id="line2d_4"/>
    </g>
    <g id="xtick_3">
     <g id="line2d_5">
      <path clip-path="url(#ped17d82535)" d="M 415.654054 266.792727 
L 415.654054 69.12 
" style="fill:none;stroke:#ffffff;stroke-linecap:round;stroke-width:1.3;"/>
     </g>
     <g id="line2d_6"/>
    </g>
    <g id="xtick_4">
     <g id="line2d_7">
      <path clip-path="url(#ped17d82535)" d="M 536.302703 266.792727 
L 536.302703 69.12 
" style="fill:none;stroke:#ffffff;stroke-linecap:round;stroke-width:1.3;"/>
     </g>
     <g id="line2d_8"/>
    </g>
    <g id="xtick_5">
     <g id="line2d_9">
      <path clip-path="url(#ped17d82535)" d="M 656.951351 266.792727 
L 656.951351 69.12 
" style="fill:none;stroke:#ffffff;stroke-linecap:round;stroke-width:1.3;"/>
     </g>
     <g id="line2d_10"/>
    </g>
    <g id="xtick_6">
     <g id="line2d_11">
      <path clip-path="url(#ped17d82535)" d="M 777.6 266.792727 
L 777.6 69.12 
" style="fill:none;stroke:#ffffff;stroke-linecap:round;stroke-width:1.3;"/>
     </g>
     <g id="line2d_12"/>
    </g>
    <g id="xtick_7">
     <g id="line2d_13"/>
    </g>
    <g id="xtick_8">
     <g id="line2d_14"/>
    </g>
    <g id="xtick_9">
     <g id="line2d_15"/>
    </g>
    <g id="xtick_10">
     <g id="line2d_16"/>
    </g>
    <g id="xtick_11">
     <g id="line2d_17"/>
    </g>
    <g id="xtick_12">
     <g id="line2d_18"/>
    </g>
    <g id="text_1">
     <!-- Calendar year -->
     <defs>
      <path d="M 58.796875 25.09375 
L 68.265625 22.703125 
Q 65.28125 11.03125 57.546875 4.90625 
Q 49.8125 -1.21875 38.625 -1.21875 
Q 27.046875 -1.21875 19.796875 3.484375 
Q 12.546875 8.203125 8.765625 17.140625 
Q 4.984375 26.078125 4.984375 36.328125 
Q 4.984375 47.515625 9.25 55.828125 
Q 13.53125 64.15625 21.40625 68.46875 
Q 29.296875 72.796875 38.765625 72.796875 
Q 49.515625 72.796875 56.828125 67.328125 
Q 64.15625 61.859375 67.046875 51.953125 
L 57.71875 49.75 
Q 55.21875 57.5625 50.484375 61.125 
Q 45.75 64.703125 38.578125 64.703125 
Q 30.328125 64.703125 24.78125 60.734375 
Q 19.234375 56.78125 16.984375 50.109375 
Q 14.75 43.453125 14.75 36.375 
Q 14.75 27.25 17.40625 20.4375 
Q 20.0625 13.625 25.671875 10.25 
Q 31.296875 6.890625 37.84375 6.890625 
Q 45.796875 6.890625 51.3125 11.46875 
Q 56.84375 16.0625 58.796875 25.09375 
z
" id="ArialMT-43"/>
      <path d="M 40.4375 6.390625 
Q 35.546875 2.25 31.03125 0.53125 
Q 26.515625 -1.171875 21.34375 -1.171875 
Q 12.796875 -1.171875 8.203125 3 
Q 3.609375 7.171875 3.609375 13.671875 
Q 3.609375 17.484375 5.34375 20.625 
Q 7.078125 23.78125 9.890625 25.6875 
Q 12.703125 27.59375 16.21875 28.5625 
Q 18.796875 29.25 24.03125 29.890625 
Q 34.671875 31.15625 39.703125 32.90625 
Q 39.75 34.71875 39.75 35.203125 
Q 39.75 40.578125 37.25 42.78125 
Q 33.890625 45.75 27.25 45.75 
Q 21.046875 45.75 18.09375 43.578125 
Q 15.140625 41.40625 13.71875 35.890625 
L 5.125 37.0625 
Q 6.296875 42.578125 8.984375 45.96875 
Q 11.671875 49.359375 16.75 51.1875 
Q 21.828125 53.03125 28.515625 53.03125 
Q 35.15625 53.03125 39.296875 51.46875 
Q 43.453125 49.90625 45.40625 47.53125 
Q 47.359375 45.171875 48.140625 41.546875 
Q 48.578125 39.3125 48.578125 33.453125 
L 48.578125 21.734375 
Q 48.578125 9.46875 49.140625 6.21875 
Q 49.703125 2.984375 51.375 0 
L 42.1875 0 
Q 40.828125 2.734375 40.4375 6.390625 
z
M 39.703125 26.03125 
Q 34.90625 24.078125 25.34375 22.703125 
Q 19.921875 21.921875 17.671875 20.9375 
Q 15.4375 19.96875 14.203125 18.09375 
Q 12.984375 16.21875 12.984375 13.921875 
Q 12.984375 10.40625 15.640625 8.0625 
Q 18.3125 5.71875 23.4375 5.71875 
Q 28.515625 5.71875 32.46875 7.9375 
Q 36.421875 10.15625 38.28125 14.015625 
Q 39.703125 17 39.703125 22.796875 
z
" id="ArialMT-61"/>
      <path d="M 6.390625 0 
L 6.390625 71.578125 
L 15.1875 71.578125 
L 15.1875 0 
z
" id="ArialMT-6c"/>
      <path d="M 42.09375 16.703125 
L 51.171875 15.578125 
Q 49.03125 7.625 43.21875 3.21875 
Q 37.40625 -1.171875 28.375 -1.171875 
Q 17 -1.171875 10.328125 5.828125 
Q 3.65625 12.84375 3.65625 25.484375 
Q 3.65625 38.578125 10.390625 45.796875 
Q 17.140625 53.03125 27.875 53.03125 
Q 38.28125 53.03125 44.875 45.953125 
Q 51.46875 38.875 51.46875 26.03125 
Q 51.46875 25.25 51.421875 23.6875 
L 12.75 23.6875 
Q 13.234375 15.140625 17.578125 10.59375 
Q 21.921875 6.0625 28.421875 6.0625 
Q 33.25 6.0625 36.671875 8.59375 
Q 40.09375 11.140625 42.09375 16.703125 
z
M 13.234375 30.90625 
L 42.1875 30.90625 
Q 41.609375 37.453125 38.875 40.71875 
Q 34.671875 45.796875 27.984375 45.796875 
Q 21.921875 45.796875 17.796875 41.75 
Q 13.671875 37.703125 13.234375 30.90625 
z
" id="ArialMT-65"/>
      <path d="M 6.59375 0 
L 6.59375 51.859375 
L 14.5 51.859375 
L 14.5 44.484375 
Q 20.21875 53.03125 31 53.03125 
Q 35.6875 53.03125 39.625 51.34375 
Q 43.5625 49.65625 45.515625 46.921875 
Q 47.46875 44.1875 48.25 40.4375 
Q 48.734375 37.984375 48.734375 31.890625 
L 48.734375 0 
L 39.9375 0 
L 39.9375 31.546875 
Q 39.9375 36.921875 38.90625 39.578125 
Q 37.890625 42.234375 35.28125 43.8125 
Q 32.671875 45.40625 29.15625 45.40625 
Q 23.53125 45.40625 19.453125 41.84375 
Q 15.375 38.28125 15.375 28.328125 
L 15.375 0 
z
" id="ArialMT-6e"/>
      <path d="M 40.234375 0 
L 40.234375 6.546875 
Q 35.296875 -1.171875 25.734375 -1.171875 
Q 19.53125 -1.171875 14.328125 2.25 
Q 9.125 5.671875 6.265625 11.796875 
Q 3.421875 17.921875 3.421875 25.875 
Q 3.421875 33.640625 6 39.96875 
Q 8.59375 46.296875 13.765625 49.65625 
Q 18.953125 53.03125 25.34375 53.03125 
Q 30.03125 53.03125 33.6875 51.046875 
Q 37.359375 49.078125 39.65625 45.90625 
L 39.65625 71.578125 
L 48.390625 71.578125 
L 48.390625 0 
z
M 12.453125 25.875 
Q 12.453125 15.921875 16.640625 10.984375 
Q 20.84375 6.0625 26.5625 6.0625 
Q 32.328125 6.0625 36.34375 10.765625 
Q 40.375 15.484375 40.375 25.140625 
Q 40.375 35.796875 36.265625 40.765625 
Q 32.171875 45.75 26.171875 45.75 
Q 20.3125 45.75 16.375 40.96875 
Q 12.453125 36.1875 12.453125 25.875 
z
" id="ArialMT-64"/>
      <path d="M 6.5 0 
L 6.5 51.859375 
L 14.40625 51.859375 
L 14.40625 44 
Q 17.4375 49.515625 20 51.265625 
Q 22.5625 53.03125 25.640625 53.03125 
Q 30.078125 53.03125 34.671875 50.203125 
L 31.640625 42.046875 
Q 28.421875 43.953125 25.203125 43.953125 
Q 22.3125 43.953125 20.015625 42.21875 
Q 17.71875 40.484375 16.75 37.40625 
Q 15.28125 32.71875 15.28125 27.15625 
L 15.28125 0 
z
" id="ArialMT-72"/>
      <path id="ArialMT-20"/>
      <path d="M 6.203125 -19.96875 
L 5.21875 -11.71875 
Q 8.109375 -12.5 10.25 -12.5 
Q 13.1875 -12.5 14.9375 -11.515625 
Q 16.703125 -10.546875 17.828125 -8.796875 
Q 18.65625 -7.46875 20.515625 -2.25 
Q 20.75 -1.515625 21.296875 -0.09375 
L 1.609375 51.859375 
L 11.078125 51.859375 
L 21.875 21.828125 
Q 23.96875 16.109375 25.640625 9.8125 
Q 27.15625 15.875 29.25 21.625 
L 40.328125 51.859375 
L 49.125 51.859375 
L 29.390625 -0.875 
Q 26.21875 -9.421875 24.46875 -12.640625 
Q 22.125 -17 19.09375 -19.015625 
Q 16.0625 -21.046875 11.859375 -21.046875 
Q 9.328125 -21.046875 6.203125 -19.96875 
z
" id="ArialMT-79"/>
     </defs>
     <g style="fill:#262626;" transform="translate(397.892414 284.60268)scale(0.143 -0.143)">
      <use xlink:href="#ArialMT-43"/>
      <use x="72.216797" xlink:href="#ArialMT-61"/>
      <use x="127.832031" xlink:href="#ArialMT-6c"/>
      <use x="150.048828" xlink:href="#ArialMT-65"/>
      <use x="205.664062" xlink:href="#ArialMT-6e"/>
      <use x="261.279297" xlink:href="#ArialMT-64"/>
      <use x="316.894531" xlink:href="#ArialMT-61"/>
      <use x="372.509766" xlink:href="#ArialMT-72"/>
      <use x="405.810547" xlink:href="#ArialMT-20"/>
      <use x="433.59375" xlink:href="#ArialMT-79"/>
      <use x="483.59375" xlink:href="#ArialMT-65"/>
      <use x="539.208984" xlink:href="#ArialMT-61"/>
      <use x="594.824219" xlink:href="#ArialMT-72"/>
     </g>
    </g>
   </g>
   <g id="matplotlib.axis_2">
    <g id="ytick_1">
     <g id="line2d_19">
      <path clip-path="url(#ped17d82535)" d="M 108 247.025455 
L 777.6 247.025455 
" style="fill:none;stroke:#ffffff;stroke-linecap:round;stroke-width:1.3;"/>
     </g>
     <g id="line2d_20"/>
     <g id="text_2">
      <!-- 0.0 -->
      <defs>
       <path d="M 4.15625 35.296875 
Q 4.15625 48 6.765625 55.734375 
Q 9.375 63.484375 14.515625 67.671875 
Q 19.671875 71.875 27.484375 71.875 
Q 33.25 71.875 37.59375 69.546875 
Q 41.9375 67.234375 44.765625 62.859375 
Q 47.609375 58.5 49.21875 52.21875 
Q 50.828125 45.953125 50.828125 35.296875 
Q 50.828125 22.703125 48.234375 14.96875 
Q 45.65625 7.234375 40.5 3 
Q 35.359375 -1.21875 27.484375 -1.21875 
Q 17.140625 -1.21875 11.234375 6.203125 
Q 4.15625 15.140625 4.15625 35.296875 
z
M 13.1875 35.296875 
Q 13.1875 17.671875 17.3125 11.828125 
Q 21.4375 6 27.484375 6 
Q 33.546875 6 37.671875 11.859375 
Q 41.796875 17.71875 41.796875 35.296875 
Q 41.796875 52.984375 37.671875 58.78125 
Q 33.546875 64.59375 27.390625 64.59375 
Q 21.34375 64.59375 17.71875 59.46875 
Q 13.1875 52.9375 13.1875 35.296875 
z
" id="ArialMT-30"/>
       <path d="M 9.078125 0 
L 9.078125 10.015625 
L 19.09375 10.015625 
L 19.09375 0 
z
" id="ArialMT-2e"/>
      </defs>
      <g style="fill:#262626;" transform="translate(80.83 251.678033)scale(0.13 -0.13)">
       <use xlink:href="#ArialMT-30"/>
       <use x="55.615234" xlink:href="#ArialMT-2e"/>
       <use x="83.398438" xlink:href="#ArialMT-30"/>
      </g>
     </g>
    </g>
    <g id="ytick_2">
     <g id="line2d_21">
      <path clip-path="url(#ped17d82535)" d="M 108 207.490909 
L 777.6 207.490909 
" style="fill:none;stroke:#ffffff;stroke-linecap:round;stroke-width:1.3;"/>
     </g>
     <g id="line2d_22"/>
     <g id="text_3">
      <!-- 0.2 -->
      <defs>
       <path d="M 50.34375 8.453125 
L 50.34375 0 
L 3.03125 0 
Q 2.9375 3.171875 4.046875 6.109375 
Q 5.859375 10.9375 9.828125 15.625 
Q 13.8125 20.3125 21.34375 26.46875 
Q 33.015625 36.03125 37.109375 41.625 
Q 41.21875 47.21875 41.21875 52.203125 
Q 41.21875 57.421875 37.46875 61 
Q 33.734375 64.59375 27.734375 64.59375 
Q 21.390625 64.59375 17.578125 60.78125 
Q 13.765625 56.984375 13.71875 50.25 
L 4.6875 51.171875 
Q 5.609375 61.28125 11.65625 66.578125 
Q 17.71875 71.875 27.9375 71.875 
Q 38.234375 71.875 44.234375 66.15625 
Q 50.25 60.453125 50.25 52 
Q 50.25 47.703125 48.484375 43.546875 
Q 46.734375 39.40625 42.65625 34.8125 
Q 38.578125 30.21875 29.109375 22.21875 
Q 21.1875 15.578125 18.9375 13.203125 
Q 16.703125 10.84375 15.234375 8.453125 
z
" id="ArialMT-32"/>
      </defs>
      <g style="fill:#262626;" transform="translate(80.83 212.143487)scale(0.13 -0.13)">
       <use xlink:href="#ArialMT-30"/>
       <use x="55.615234" xlink:href="#ArialMT-2e"/>
       <use x="83.398438" xlink:href="#ArialMT-32"/>
      </g>
     </g>
    </g>
    <g id="ytick_3">
     <g id="line2d_23">
      <path clip-path="url(#ped17d82535)" d="M 108 167.956364 
L 777.6 167.956364 
" style="fill:none;stroke:#ffffff;stroke-linecap:round;stroke-width:1.3;"/>
     </g>
     <g id="line2d_24"/>
     <g id="text_4">
      <!-- 0.4 -->
      <defs>
       <path d="M 32.328125 0 
L 32.328125 17.140625 
L 1.265625 17.140625 
L 1.265625 25.203125 
L 33.9375 71.578125 
L 41.109375 71.578125 
L 41.109375 25.203125 
L 50.78125 25.203125 
L 50.78125 17.140625 
L 41.109375 17.140625 
L 41.109375 0 
z
M 32.328125 25.203125 
L 32.328125 57.46875 
L 9.90625 25.203125 
z
" id="ArialMT-34"/>
      </defs>
      <g style="fill:#262626;" transform="translate(80.83 172.608942)scale(0.13 -0.13)">
       <use xlink:href="#ArialMT-30"/>
       <use x="55.615234" xlink:href="#ArialMT-2e"/>
       <use x="83.398438" xlink:href="#ArialMT-34"/>
      </g>
     </g>
    </g>
    <g id="ytick_4">
     <g id="line2d_25">
      <path clip-path="url(#ped17d82535)" d="M 108 128.421818 
L 777.6 128.421818 
" style="fill:none;stroke:#ffffff;stroke-linecap:round;stroke-width:1.3;"/>
     </g>
     <g id="line2d_26"/>
     <g id="text_5">
      <!-- 0.6 -->
      <defs>
       <path d="M 49.75 54.046875 
L 41.015625 53.375 
Q 39.84375 58.546875 37.703125 60.890625 
Q 34.125 64.65625 28.90625 64.65625 
Q 24.703125 64.65625 21.53125 62.3125 
Q 17.390625 59.28125 14.984375 53.46875 
Q 12.59375 47.65625 12.5 36.921875 
Q 15.671875 41.75 20.265625 44.09375 
Q 24.859375 46.4375 29.890625 46.4375 
Q 38.671875 46.4375 44.84375 39.96875 
Q 51.03125 33.5 51.03125 23.25 
Q 51.03125 16.5 48.125 10.71875 
Q 45.21875 4.9375 40.140625 1.859375 
Q 35.0625 -1.21875 28.609375 -1.21875 
Q 17.625 -1.21875 10.6875 6.859375 
Q 3.765625 14.9375 3.765625 33.5 
Q 3.765625 54.25 11.421875 63.671875 
Q 18.109375 71.875 29.4375 71.875 
Q 37.890625 71.875 43.28125 67.140625 
Q 48.6875 62.40625 49.75 54.046875 
z
M 13.875 23.1875 
Q 13.875 18.65625 15.796875 14.5 
Q 17.71875 10.359375 21.1875 8.171875 
Q 24.65625 6 28.46875 6 
Q 34.03125 6 38.03125 10.484375 
Q 42.046875 14.984375 42.046875 22.703125 
Q 42.046875 30.125 38.078125 34.390625 
Q 34.125 38.671875 28.125 38.671875 
Q 22.171875 38.671875 18.015625 34.390625 
Q 13.875 30.125 13.875 23.1875 
z
" id="ArialMT-36"/>
      </defs>
      <g style="fill:#262626;" transform="translate(80.83 133.074396)scale(0.13 -0.13)">
       <use xlink:href="#ArialMT-30"/>
       <use x="55.615234" xlink:href="#ArialMT-2e"/>
       <use x="83.398438" xlink:href="#ArialMT-36"/>
      </g>
     </g>
    </g>
    <g id="ytick_5">
     <g id="line2d_27">
      <path clip-path="url(#ped17d82535)" d="M 108 88.887273 
L 777.6 88.887273 
" style="fill:none;stroke:#ffffff;stroke-linecap:round;stroke-width:1.3;"/>
     </g>
     <g id="line2d_28"/>
     <g id="text_6">
      <!-- 0.8 -->
      <defs>
       <path d="M 17.671875 38.8125 
Q 12.203125 40.828125 9.5625 44.53125 
Q 6.9375 48.25 6.9375 53.421875 
Q 6.9375 61.234375 12.546875 66.546875 
Q 18.171875 71.875 27.484375 71.875 
Q 36.859375 71.875 42.578125 66.421875 
Q 48.296875 60.984375 48.296875 53.171875 
Q 48.296875 48.1875 45.671875 44.5 
Q 43.0625 40.828125 37.75 38.8125 
Q 44.34375 36.671875 47.78125 31.875 
Q 51.21875 27.09375 51.21875 20.453125 
Q 51.21875 11.28125 44.71875 5.03125 
Q 38.234375 -1.21875 27.640625 -1.21875 
Q 17.046875 -1.21875 10.546875 5.046875 
Q 4.046875 11.328125 4.046875 20.703125 
Q 4.046875 27.6875 7.59375 32.390625 
Q 11.140625 37.109375 17.671875 38.8125 
z
M 15.921875 53.71875 
Q 15.921875 48.640625 19.1875 45.40625 
Q 22.46875 42.1875 27.6875 42.1875 
Q 32.765625 42.1875 36.015625 45.375 
Q 39.265625 48.578125 39.265625 53.21875 
Q 39.265625 58.0625 35.90625 61.359375 
Q 32.5625 64.65625 27.59375 64.65625 
Q 22.5625 64.65625 19.234375 61.421875 
Q 15.921875 58.203125 15.921875 53.71875 
z
M 13.09375 20.65625 
Q 13.09375 16.890625 14.875 13.375 
Q 16.65625 9.859375 20.171875 7.921875 
Q 23.6875 6 27.734375 6 
Q 34.03125 6 38.125 10.046875 
Q 42.234375 14.109375 42.234375 20.359375 
Q 42.234375 26.703125 38.015625 30.859375 
Q 33.796875 35.015625 27.4375 35.015625 
Q 21.234375 35.015625 17.15625 30.90625 
Q 13.09375 26.8125 13.09375 20.65625 
z
" id="ArialMT-38"/>
      </defs>
      <g style="fill:#262626;" transform="translate(80.83 93.539851)scale(0.13 -0.13)">
       <use xlink:href="#ArialMT-30"/>
       <use x="55.615234" xlink:href="#ArialMT-2e"/>
       <use x="83.398438" xlink:href="#ArialMT-38"/>
      </g>
     </g>
    </g>
    <g id="text_7">
     <!-- $\Delta^{14}$C -->
     <defs>
      <path d="M 34.1875 63.1875 
L 14.15625 8.203125 
L 54.25 8.203125 
z
M 0.78125 0 
L 28.609375 72.90625 
L 39.796875 72.90625 
L 67.578125 0 
z
" id="DejaVuSans-394"/>
      <path d="M 12.40625 8.296875 
L 28.515625 8.296875 
L 28.515625 63.921875 
L 10.984375 60.40625 
L 10.984375 69.390625 
L 28.421875 72.90625 
L 38.28125 72.90625 
L 38.28125 8.296875 
L 54.390625 8.296875 
L 54.390625 0 
L 12.40625 0 
z
" id="DejaVuSans-31"/>
      <path d="M 37.796875 64.3125 
L 12.890625 25.390625 
L 37.796875 25.390625 
z
M 35.203125 72.90625 
L 47.609375 72.90625 
L 47.609375 25.390625 
L 58.015625 25.390625 
L 58.015625 17.1875 
L 47.609375 17.1875 
L 47.609375 0 
L 37.796875 0 
L 37.796875 17.1875 
L 4.890625 17.1875 
L 4.890625 26.703125 
z
" id="DejaVuSans-34"/>
     </defs>
     <g style="fill:#262626;" transform="translate(73.987875 184.687364)rotate(-90)scale(0.143 -0.143)">
      <use transform="translate(0 0.684375)" xlink:href="#DejaVuSans-394"/>
      <use transform="translate(69.365234 38.965625)scale(0.7)" xlink:href="#DejaVuSans-31"/>
      <use transform="translate(113.901367 38.965625)scale(0.7)" xlink:href="#DejaVuSans-34"/>
      <use transform="translate(161.171875 0.684375)" xlink:href="#ArialMT-43"/>
     </g>
    </g>
   </g>
   <g id="LineCollection_1">
    <path clip-path="url(#ped17d82535)" d="M 567.47027 243.137222 
L 567.47027 236.693091 
" style="fill:none;stroke:#000000;stroke-width:2.275;"/>
    <path clip-path="url(#ped17d82535)" d="M 548.87027 243.016406 
L 548.87027 236.572275 
" style="fill:none;stroke:#000000;stroke-width:2.275;"/>
    <path clip-path="url(#ped17d82535)" d="M 334.216216 231.327452 
L 334.216216 224.883321 
" style="fill:none;stroke:#000000;stroke-width:2.275;"/>
    <path clip-path="url(#ped17d82535)" d="M 330.194595 231.259288 
L 330.194595 224.815157 
" style="fill:none;stroke:#000000;stroke-width:2.275;"/>
    <path clip-path="url(#ped17d82535)" d="M 280.427027 243.450848 
L 280.427027 237.006717 
" style="fill:none;stroke:#000000;stroke-width:2.275;"/>
    <path clip-path="url(#ped17d82535)" d="M 605.172973 243.580698 
L 605.172973 237.136567 
" style="fill:none;stroke:#000000;stroke-width:2.275;"/>
    <path clip-path="url(#ped17d82535)" d="M 538.816216 243.07072 
L 538.816216 236.626589 
" style="fill:none;stroke:#000000;stroke-width:2.275;"/>
    <path clip-path="url(#ped17d82535)" d="M 312.097297 243.085745 
L 312.097297 236.641614 
" style="fill:none;stroke:#000000;stroke-width:2.275;"/>
    <path clip-path="url(#ped17d82535)" d="M 362.367568 243.396827 
L 362.367568 236.952696 
" style="fill:none;stroke:#000000;stroke-width:2.275;"/>
    <path clip-path="url(#ped17d82535)" d="M 439.783784 243.601339 
L 439.783784 237.157208 
" style="fill:none;stroke:#000000;stroke-width:2.275;"/>
    <path clip-path="url(#ped17d82535)" d="M 372.924324 244.034635 
L 372.924324 237.590504 
" style="fill:none;stroke:#000000;stroke-width:2.275;"/>
    <path clip-path="url(#ped17d82535)" d="M 531.778378 243.823028 
L 531.778378 237.378897 
" style="fill:none;stroke:#000000;stroke-width:2.275;"/>
    <path clip-path="url(#ped17d82535)" d="M 315.113514 243.759675 
L 315.113514 237.315544 
" style="fill:none;stroke:#000000;stroke-width:2.275;"/>
    <path clip-path="url(#ped17d82535)" d="M 482.513514 243.874168 
L 482.513514 237.430037 
" style="fill:none;stroke:#000000;stroke-width:2.275;"/>
    <path clip-path="url(#ped17d82535)" d="M 373.427027 244.018963 
L 373.427027 237.574832 
" style="fill:none;stroke:#000000;stroke-width:2.275;"/>
    <path clip-path="url(#ped17d82535)" d="M 628.8 243.518414 
L 628.8 237.074283 
" style="fill:none;stroke:#000000;stroke-width:2.275;"/>
    <path clip-path="url(#ped17d82535)" d="M 250.264865 243.920955 
L 250.264865 237.476824 
" style="fill:none;stroke:#000000;stroke-width:2.275;"/>
    <path clip-path="url(#ped17d82535)" d="M 535.297297 244.043784 
L 535.297297 237.599653 
" style="fill:none;stroke:#000000;stroke-width:2.275;"/>
    <path clip-path="url(#ped17d82535)" d="M 548.87027 243.240107 
L 548.87027 236.795976 
" style="fill:none;stroke:#000000;stroke-width:2.275;"/>
   </g>
   <g id="line2d_29">
    <path clip-path="url(#ped17d82535)" d="M 114.032432 248.376548 
L 292.710786 250.404128 
L 298.688873 251.000952 
L 307.323886 250.881735 
L 311.309277 251.01604 
L 316.623131 251.459873 
L 324.593913 251.346968 
L 331.900463 251.333127 
L 341.86394 251.259866 
L 349.170489 251.651323 
L 353.820112 251.898077 
L 371.090139 251.925245 
L 377.732457 251.631546 
L 382.382079 251.204937 
L 385.039007 250.1128 
L 388.360166 248.708908 
L 389.688629 247.304046 
L 394.338252 242.017142 
L 396.330947 239.059036 
L 400.316338 232.986387 
L 401.644802 230.235145 
L 406.958656 218.295415 
L 412.27251 203.007142 
L 412.936742 202.109848 
L 418.250597 204.843628 
L 418.914828 204.985007 
L 424.228683 203.365634 
L 424.892915 202.367891 
L 430.206769 178.530024 
L 430.871001 174.55792 
L 436.849087 104.723529 
L 442.827173 81.901056 
L 448.805259 97.454872 
L 458.104505 117.506257 
L 461.425664 124.77998 
L 466.739518 135.070834 
L 467.40375 135.735877 
L 474.046068 139.793689 
L 478.69569 142.277163 
L 480.024154 143.438802 
L 486.00224 149.387811 
L 491.316094 155.384279 
L 497.294181 164.397641 
L 503.272267 167.948508 
L 509.250353 173.979139 
L 517.885366 178.989114 
L 521.206525 181.01333 
L 527.184612 182.605248 
L 529.841539 185.167307 
L 536.483857 191.83324 
L 539.140784 194.558314 
L 539.805016 194.865261 
L 545.11887 196.223445 
L 546.447334 196.943674 
L 551.761188 200.094417 
L 561.724665 204.810821 
L 563.717361 205.722995 
L 571.02391 207.749605 
L 577.001997 209.664785 
L 586.301242 212.363987 
L 592.279328 214.274022 
L 596.264719 215.662569 
L 601.578573 217.489172 
L 606.228196 218.895705 
L 613.534746 220.541741 
L 619.512832 222.010149 
L 636.782859 225.474636 
L 647.410567 227.533776 
L 650.067495 228.208347 
L 654.052885 229.248028 
L 660.695203 230.047672 
L 678.629462 233.621195 
L 681.286389 234.535209 
L 687.264475 235.311215 
L 716.490674 238.368706 
L 719.811833 238.747597 
L 721.804529 239.335987 
L 723.797224 240.068782 
L 724.461456 240.103532 
L 727.118383 239.704959 
L 730.439542 240.887396 
L 733.096469 241.113308 
L 735.753397 242.950294 
L 736.417628 243.160953 
L 739.074556 242.709128 
L 743.059946 243.43959 
L 745.052642 243.465657 
L 747.045337 244.250582 
L 748.373801 244.716953 
L 751.030728 244.490589 
L 753.023423 244.868076 
L 754.351887 245.12696 
L 760.329973 245.197865 
L 771.621914 245.832888 
L 775.607305 246.07472 
L 777.6 246.695549 
L 777.6 246.695549 
" style="fill:none;stroke:#000000;stroke-linecap:round;stroke-width:2.275;"/>
   </g>
   <g id="line2d_30">
    <defs>
     <path d="M -4.55 4.55 
L 4.55 4.55 
L 4.55 -4.55 
L -4.55 -4.55 
z
" id="md424a64bc2"/>
    </defs>
    <g clip-path="url(#ped17d82535)">
     <use style="fill:#ffffff;" x="567.47027" xlink:href="#md424a64bc2" y="239.915156"/>
     <use style="fill:#ffffff;" x="548.87027" xlink:href="#md424a64bc2" y="239.794341"/>
     <use style="fill:#ffffff;" x="334.216216" xlink:href="#md424a64bc2" y="228.105387"/>
     <use style="fill:#ffffff;" x="330.194595" xlink:href="#md424a64bc2" y="228.037222"/>
     <use style="fill:#ffffff;" x="280.427027" xlink:href="#md424a64bc2" y="240.228783"/>
     <use style="fill:#ffffff;" x="605.172973" xlink:href="#md424a64bc2" y="240.358633"/>
     <use style="fill:#ffffff;" x="538.816216" xlink:href="#md424a64bc2" y="239.848655"/>
     <use style="fill:#ffffff;" x="312.097297" xlink:href="#md424a64bc2" y="239.863679"/>
     <use style="fill:#ffffff;" x="362.367568" xlink:href="#md424a64bc2" y="240.174761"/>
     <use style="fill:#ffffff;" x="439.783784" xlink:href="#md424a64bc2" y="240.379274"/>
     <use style="fill:#ffffff;" x="372.924324" xlink:href="#md424a64bc2" y="240.81257"/>
     <use style="fill:#ffffff;" x="531.778378" xlink:href="#md424a64bc2" y="240.600963"/>
     <use style="fill:#ffffff;" x="315.113514" xlink:href="#md424a64bc2" y="240.53761"/>
     <use style="fill:#ffffff;" x="482.513514" xlink:href="#md424a64bc2" y="240.652103"/>
     <use style="fill:#ffffff;" x="373.427027" xlink:href="#md424a64bc2" y="240.796897"/>
     <use style="fill:#ffffff;" x="628.8" xlink:href="#md424a64bc2" y="240.296348"/>
     <use style="fill:#ffffff;" x="250.264865" xlink:href="#md424a64bc2" y="240.69889"/>
     <use style="fill:#ffffff;" x="535.297297" xlink:href="#md424a64bc2" y="240.821718"/>
     <use style="fill:#ffffff;" x="548.87027" xlink:href="#md424a64bc2" y="240.018042"/>
    </g>
   </g>
   <g id="line2d_31">
    <defs>
     <path d="M 0 4.55 
C 1.206674 4.55 2.364088 4.070583 3.217336 3.217336 
C 4.070583 2.364088 4.55 1.206674 4.55 0 
C 4.55 -1.206674 4.070583 -2.364088 3.217336 -3.217336 
C 2.364088 -4.070583 1.206674 -4.55 0 -4.55 
C -1.206674 -4.55 -2.364088 -4.070583 -3.217336 -3.217336 
C -4.070583 -2.364088 -4.55 -1.206674 -4.55 0 
C -4.55 1.206674 -4.070583 2.364088 -3.217336 3.217336 
C -2.364088 4.070583 -1.206674 4.55 0 4.55 
z
" id="m933db66046"/>
    </defs>
    <g clip-path="url(#ped17d82535)">
     <use x="567.47027" xlink:href="#m933db66046" y="239.052071"/>
     <use x="548.87027" xlink:href="#m933db66046" y="243.306175"/>
     <use x="334.216216" xlink:href="#m933db66046" y="232.199726"/>
     <use x="330.194595" xlink:href="#m933db66046" y="229.165469"/>
     <use x="280.427027" xlink:href="#m933db66046" y="238.872905"/>
     <use x="605.172973" xlink:href="#m933db66046" y="243.353984"/>
     <use x="538.816216" xlink:href="#m933db66046" y="241.925498"/>
     <use x="312.097297" xlink:href="#m933db66046" y="233.682545"/>
     <use x="362.367568" xlink:href="#m933db66046" y="243.526647"/>
     <use x="439.783784" xlink:href="#m933db66046" y="241.490618"/>
     <use x="372.924324" xlink:href="#m933db66046" y="239.197615"/>
     <use x="531.778378" xlink:href="#m933db66046" y="237.220887"/>
     <use x="315.113514" xlink:href="#m933db66046" y="232.022095"/>
     <use x="482.513514" xlink:href="#m933db66046" y="237.584722"/>
     <use x="373.427027" xlink:href="#m933db66046" y="239.290237"/>
     <use x="628.8" xlink:href="#m933db66046" y="241.755034"/>
     <use x="250.264865" xlink:href="#m933db66046" y="240.699927"/>
     <use x="535.297297" xlink:href="#m933db66046" y="236.667404"/>
     <use x="548.87027" xlink:href="#m933db66046" y="240.541789"/>
    </g>
   </g>
   <g id="line2d_32">
    <defs>
     <path d="M 0 4.55 
C 1.206674 4.55 2.364088 4.070583 3.217336 3.217336 
C 4.070583 2.364088 4.55 1.206674 4.55 0 
C 4.55 -1.206674 4.070583 -2.364088 3.217336 -3.217336 
C 2.364088 -4.070583 1.206674 -4.55 0 -4.55 
C -1.206674 -4.55 -2.364088 -4.070583 -3.217336 -3.217336 
C -4.070583 -2.364088 -4.55 -1.206674 -4.55 0 
C -4.55 1.206674 -4.070583 2.364088 -3.217336 3.217336 
C -2.364088 4.070583 -1.206674 4.55 0 4.55 
z
" id="m4b7309e76c"/>
    </defs>
    <g clip-path="url(#ped17d82535)">
     <use style="fill:#ff0000;" x="334.216216" xlink:href="#m4b7309e76c" y="232.199726"/>
     <use style="fill:#ff0000;" x="330.194595" xlink:href="#m4b7309e76c" y="229.165469"/>
    </g>
   </g>
   <g id="patch_3">
    <path d="M 108 266.792727 
L 108 69.12 
" style="fill:none;"/>
   </g>
   <g id="patch_4">
    <path d="M 777.6 266.792727 
L 777.6 69.12 
" style="fill:none;"/>
   </g>
   <g id="patch_5">
    <path d="M 108 266.792727 
L 777.6 266.792727 
" style="fill:none;"/>
   </g>
   <g id="patch_6">
    <path d="M 108 69.12 
L 777.6 69.12 
" style="fill:none;"/>
   </g>
   <g id="legend_1">
    <g id="line2d_33">
     <path d="M 551.761563 85.575156 
L 577.761563 85.575156 
" style="fill:none;stroke:#000000;stroke-linecap:round;stroke-width:2.275;"/>
    </g>
    <g id="line2d_34"/>
    <g id="text_8">
     <!-- Atmosphere -->
     <defs>
      <path d="M -0.140625 0 
L 27.34375 71.578125 
L 37.546875 71.578125 
L 66.84375 0 
L 56.0625 0 
L 47.703125 21.6875 
L 17.78125 21.6875 
L 9.90625 0 
z
M 20.515625 29.390625 
L 44.78125 29.390625 
L 37.3125 49.21875 
Q 33.890625 58.25 32.234375 64.0625 
Q 30.859375 57.171875 28.375 50.390625 
z
" id="ArialMT-41"/>
      <path d="M 25.78125 7.859375 
L 27.046875 0.09375 
Q 23.34375 -0.6875 20.40625 -0.6875 
Q 15.625 -0.6875 12.984375 0.828125 
Q 10.359375 2.34375 9.28125 4.8125 
Q 8.203125 7.28125 8.203125 15.1875 
L 8.203125 45.015625 
L 1.765625 45.015625 
L 1.765625 51.859375 
L 8.203125 51.859375 
L 8.203125 64.703125 
L 16.9375 69.96875 
L 16.9375 51.859375 
L 25.78125 51.859375 
L 25.78125 45.015625 
L 16.9375 45.015625 
L 16.9375 14.703125 
Q 16.9375 10.9375 17.40625 9.859375 
Q 17.875 8.796875 18.921875 8.15625 
Q 19.96875 7.515625 21.921875 7.515625 
Q 23.390625 7.515625 25.78125 7.859375 
z
" id="ArialMT-74"/>
      <path d="M 6.59375 0 
L 6.59375 51.859375 
L 14.453125 51.859375 
L 14.453125 44.578125 
Q 16.890625 48.390625 20.9375 50.703125 
Q 25 53.03125 30.171875 53.03125 
Q 35.9375 53.03125 39.625 50.640625 
Q 43.3125 48.25 44.828125 43.953125 
Q 50.984375 53.03125 60.84375 53.03125 
Q 68.5625 53.03125 72.703125 48.75 
Q 76.859375 44.484375 76.859375 35.59375 
L 76.859375 0 
L 68.109375 0 
L 68.109375 32.671875 
Q 68.109375 37.9375 67.25 40.25 
Q 66.40625 42.578125 64.15625 43.984375 
Q 61.921875 45.40625 58.890625 45.40625 
Q 53.421875 45.40625 49.796875 41.765625 
Q 46.1875 38.140625 46.1875 30.125 
L 46.1875 0 
L 37.40625 0 
L 37.40625 33.6875 
Q 37.40625 39.546875 35.25 42.46875 
Q 33.109375 45.40625 28.21875 45.40625 
Q 24.515625 45.40625 21.359375 43.453125 
Q 18.21875 41.5 16.796875 37.734375 
Q 15.375 33.984375 15.375 26.90625 
L 15.375 0 
z
" id="ArialMT-6d"/>
      <path d="M 3.328125 25.921875 
Q 3.328125 40.328125 11.328125 47.265625 
Q 18.015625 53.03125 27.640625 53.03125 
Q 38.328125 53.03125 45.109375 46.015625 
Q 51.90625 39.015625 51.90625 26.65625 
Q 51.90625 16.65625 48.90625 10.90625 
Q 45.90625 5.171875 40.15625 2 
Q 34.421875 -1.171875 27.640625 -1.171875 
Q 16.75 -1.171875 10.03125 5.8125 
Q 3.328125 12.796875 3.328125 25.921875 
z
M 12.359375 25.921875 
Q 12.359375 15.96875 16.703125 11.015625 
Q 21.046875 6.0625 27.640625 6.0625 
Q 34.1875 6.0625 38.53125 11.03125 
Q 42.875 16.015625 42.875 26.21875 
Q 42.875 35.84375 38.5 40.796875 
Q 34.125 45.75 27.640625 45.75 
Q 21.046875 45.75 16.703125 40.8125 
Q 12.359375 35.890625 12.359375 25.921875 
z
" id="ArialMT-6f"/>
      <path d="M 3.078125 15.484375 
L 11.765625 16.84375 
Q 12.5 11.625 15.84375 8.84375 
Q 19.1875 6.0625 25.203125 6.0625 
Q 31.25 6.0625 34.171875 8.515625 
Q 37.109375 10.984375 37.109375 14.3125 
Q 37.109375 17.28125 34.515625 19 
Q 32.71875 20.171875 25.53125 21.96875 
Q 15.875 24.421875 12.140625 26.203125 
Q 8.40625 27.984375 6.46875 31.125 
Q 4.546875 34.28125 4.546875 38.09375 
Q 4.546875 41.546875 6.125 44.5 
Q 7.71875 47.46875 10.453125 49.421875 
Q 12.5 50.921875 16.03125 51.96875 
Q 19.578125 53.03125 23.640625 53.03125 
Q 29.734375 53.03125 34.34375 51.265625 
Q 38.96875 49.515625 41.15625 46.5 
Q 43.359375 43.5 44.1875 38.484375 
L 35.59375 37.3125 
Q 35.015625 41.3125 32.203125 43.546875 
Q 29.390625 45.796875 24.265625 45.796875 
Q 18.21875 45.796875 15.625 43.796875 
Q 13.03125 41.796875 13.03125 39.109375 
Q 13.03125 37.40625 14.109375 36.03125 
Q 15.1875 34.625 17.484375 33.6875 
Q 18.796875 33.203125 25.25 31.453125 
Q 34.578125 28.953125 38.25 27.359375 
Q 41.9375 25.78125 44.03125 22.75 
Q 46.140625 19.734375 46.140625 15.234375 
Q 46.140625 10.84375 43.578125 6.953125 
Q 41.015625 3.078125 36.171875 0.953125 
Q 31.34375 -1.171875 25.25 -1.171875 
Q 15.140625 -1.171875 9.84375 3.03125 
Q 4.546875 7.234375 3.078125 15.484375 
z
" id="ArialMT-73"/>
      <path d="M 6.59375 -19.875 
L 6.59375 51.859375 
L 14.59375 51.859375 
L 14.59375 45.125 
Q 17.4375 49.078125 21 51.046875 
Q 24.5625 53.03125 29.640625 53.03125 
Q 36.28125 53.03125 41.359375 49.609375 
Q 46.4375 46.1875 49.015625 39.953125 
Q 51.609375 33.734375 51.609375 26.3125 
Q 51.609375 18.359375 48.75 11.984375 
Q 45.90625 5.609375 40.453125 2.21875 
Q 35.015625 -1.171875 29 -1.171875 
Q 24.609375 -1.171875 21.109375 0.6875 
Q 17.625 2.546875 15.375 5.375 
L 15.375 -19.875 
z
M 14.546875 25.640625 
Q 14.546875 15.625 18.59375 10.84375 
Q 22.65625 6.0625 28.421875 6.0625 
Q 34.28125 6.0625 38.453125 11.015625 
Q 42.625 15.96875 42.625 26.375 
Q 42.625 36.28125 38.546875 41.203125 
Q 34.46875 46.140625 28.8125 46.140625 
Q 23.1875 46.140625 18.859375 40.890625 
Q 14.546875 35.640625 14.546875 25.640625 
z
" id="ArialMT-70"/>
      <path d="M 6.59375 0 
L 6.59375 71.578125 
L 15.375 71.578125 
L 15.375 45.90625 
Q 21.53125 53.03125 30.90625 53.03125 
Q 36.671875 53.03125 40.921875 50.75 
Q 45.171875 48.484375 47 44.484375 
Q 48.828125 40.484375 48.828125 32.859375 
L 48.828125 0 
L 40.046875 0 
L 40.046875 32.859375 
Q 40.046875 39.453125 37.1875 42.453125 
Q 34.328125 45.453125 29.109375 45.453125 
Q 25.203125 45.453125 21.75 43.421875 
Q 18.3125 41.40625 16.84375 37.9375 
Q 15.375 34.46875 15.375 28.375 
L 15.375 0 
z
" id="ArialMT-68"/>
     </defs>
     <g style="fill:#262626;" transform="translate(588.161563 90.125156)scale(0.13 -0.13)">
      <use xlink:href="#ArialMT-41"/>
      <use x="66.699219" xlink:href="#ArialMT-74"/>
      <use x="94.482422" xlink:href="#ArialMT-6d"/>
      <use x="177.783203" xlink:href="#ArialMT-6f"/>
      <use x="233.398438" xlink:href="#ArialMT-73"/>
      <use x="283.398438" xlink:href="#ArialMT-70"/>
      <use x="339.013672" xlink:href="#ArialMT-68"/>
      <use x="394.628906" xlink:href="#ArialMT-65"/>
      <use x="450.244141" xlink:href="#ArialMT-72"/>
      <use x="483.544922" xlink:href="#ArialMT-65"/>
     </g>
    </g>
    <g id="LineCollection_2">
     <path d="M 564.761563 110.464062 
L 564.761563 97.464062 
" style="fill:none;stroke:#000000;stroke-width:2.275;"/>
    </g>
    <g id="line2d_35"/>
    <g id="line2d_36">
     <g>
      <use style="fill:#ffffff;" x="564.761563" xlink:href="#md424a64bc2" y="103.964062"/>
     </g>
    </g>
    <g id="text_9">
     <!-- Scenario L1 -->
     <defs>
      <path d="M 4.5 23 
L 13.421875 23.78125 
Q 14.0625 18.40625 16.375 14.96875 
Q 18.703125 11.53125 23.578125 9.40625 
Q 28.46875 7.28125 34.578125 7.28125 
Q 39.984375 7.28125 44.140625 8.890625 
Q 48.296875 10.5 50.3125 13.296875 
Q 52.34375 16.109375 52.34375 19.4375 
Q 52.34375 22.796875 50.390625 25.3125 
Q 48.4375 27.828125 43.953125 29.546875 
Q 41.0625 30.671875 31.203125 33.03125 
Q 21.34375 35.40625 17.390625 37.5 
Q 12.25 40.1875 9.734375 44.15625 
Q 7.234375 48.140625 7.234375 53.078125 
Q 7.234375 58.5 10.296875 63.203125 
Q 13.375 67.921875 19.28125 70.359375 
Q 25.203125 72.796875 32.421875 72.796875 
Q 40.375 72.796875 46.453125 70.234375 
Q 52.546875 67.671875 55.8125 62.6875 
Q 59.078125 57.71875 59.328125 51.421875 
L 50.25 50.734375 
Q 49.515625 57.515625 45.28125 60.984375 
Q 41.0625 64.453125 32.8125 64.453125 
Q 24.21875 64.453125 20.28125 61.296875 
Q 16.359375 58.15625 16.359375 53.71875 
Q 16.359375 49.859375 19.140625 47.359375 
Q 21.875 44.875 33.421875 42.265625 
Q 44.96875 39.65625 49.265625 37.703125 
Q 55.515625 34.8125 58.484375 30.390625 
Q 61.46875 25.984375 61.46875 20.21875 
Q 61.46875 14.5 58.203125 9.4375 
Q 54.9375 4.390625 48.796875 1.578125 
Q 42.671875 -1.21875 35.015625 -1.21875 
Q 25.296875 -1.21875 18.71875 1.609375 
Q 12.15625 4.4375 8.421875 10.125 
Q 4.6875 15.828125 4.5 23 
z
" id="ArialMT-53"/>
      <path d="M 40.4375 19 
L 49.078125 17.875 
Q 47.65625 8.9375 41.8125 3.875 
Q 35.984375 -1.171875 27.484375 -1.171875 
Q 16.84375 -1.171875 10.375 5.78125 
Q 3.90625 12.75 3.90625 25.734375 
Q 3.90625 34.125 6.6875 40.421875 
Q 9.46875 46.734375 15.15625 49.875 
Q 20.84375 53.03125 27.546875 53.03125 
Q 35.984375 53.03125 41.359375 48.75 
Q 46.734375 44.484375 48.25 36.625 
L 39.703125 35.296875 
Q 38.484375 40.53125 35.375 43.15625 
Q 32.28125 45.796875 27.875 45.796875 
Q 21.234375 45.796875 17.078125 41.03125 
Q 12.9375 36.28125 12.9375 25.984375 
Q 12.9375 15.53125 16.9375 10.796875 
Q 20.953125 6.0625 27.390625 6.0625 
Q 32.5625 6.0625 36.03125 9.234375 
Q 39.5 12.40625 40.4375 19 
z
" id="ArialMT-63"/>
      <path d="M 6.640625 61.46875 
L 6.640625 71.578125 
L 15.4375 71.578125 
L 15.4375 61.46875 
z
M 6.640625 0 
L 6.640625 51.859375 
L 15.4375 51.859375 
L 15.4375 0 
z
" id="ArialMT-69"/>
      <path d="M 7.328125 0 
L 7.328125 71.578125 
L 16.796875 71.578125 
L 16.796875 8.453125 
L 52.046875 8.453125 
L 52.046875 0 
z
" id="ArialMT-4c"/>
      <path d="M 37.25 0 
L 28.46875 0 
L 28.46875 56 
Q 25.296875 52.984375 20.140625 49.953125 
Q 14.984375 46.921875 10.890625 45.40625 
L 10.890625 53.90625 
Q 18.265625 57.375 23.78125 62.296875 
Q 29.296875 67.234375 31.59375 71.875 
L 37.25 71.875 
z
" id="ArialMT-31"/>
     </defs>
     <g style="fill:#262626;" transform="translate(588.161563 108.514062)scale(0.13 -0.13)">
      <use xlink:href="#ArialMT-53"/>
      <use x="66.699219" xlink:href="#ArialMT-63"/>
      <use x="116.699219" xlink:href="#ArialMT-65"/>
      <use x="172.314453" xlink:href="#ArialMT-6e"/>
      <use x="227.929688" xlink:href="#ArialMT-61"/>
      <use x="283.544922" xlink:href="#ArialMT-72"/>
      <use x="316.845703" xlink:href="#ArialMT-69"/>
      <use x="339.0625" xlink:href="#ArialMT-6f"/>
      <use x="394.677734" xlink:href="#ArialMT-20"/>
      <use x="422.460938" xlink:href="#ArialMT-4c"/>
      <use x="478.076172" xlink:href="#ArialMT-31"/>
     </g>
    </g>
    <g id="line2d_37"/>
    <g id="line2d_38">
     <g>
      <use x="564.761563" xlink:href="#m933db66046" y="122.511406"/>
     </g>
    </g>
    <g id="text_10">
     <!-- Hepato DNA (coll after 2015) -->
     <defs>
      <path d="M 8.015625 0 
L 8.015625 71.578125 
L 17.484375 71.578125 
L 17.484375 42.1875 
L 54.6875 42.1875 
L 54.6875 71.578125 
L 64.15625 71.578125 
L 64.15625 0 
L 54.6875 0 
L 54.6875 33.734375 
L 17.484375 33.734375 
L 17.484375 0 
z
" id="ArialMT-48"/>
      <path d="M 7.71875 0 
L 7.71875 71.578125 
L 32.375 71.578125 
Q 40.71875 71.578125 45.125 70.5625 
Q 51.265625 69.140625 55.609375 65.4375 
Q 61.28125 60.640625 64.078125 53.1875 
Q 66.890625 45.75 66.890625 36.1875 
Q 66.890625 28.03125 64.984375 21.734375 
Q 63.09375 15.4375 60.109375 11.296875 
Q 57.125 7.171875 53.578125 4.796875 
Q 50.046875 2.4375 45.046875 1.21875 
Q 40.046875 0 33.546875 0 
z
M 17.1875 8.453125 
L 32.46875 8.453125 
Q 39.546875 8.453125 43.578125 9.765625 
Q 47.609375 11.078125 50 13.484375 
Q 53.375 16.84375 55.25 22.53125 
Q 57.125 28.21875 57.125 36.328125 
Q 57.125 47.5625 53.4375 53.59375 
Q 49.75 59.625 44.484375 61.671875 
Q 40.671875 63.140625 32.234375 63.140625 
L 17.1875 63.140625 
z
" id="ArialMT-44"/>
      <path d="M 7.625 0 
L 7.625 71.578125 
L 17.328125 71.578125 
L 54.9375 15.375 
L 54.9375 71.578125 
L 64.015625 71.578125 
L 64.015625 0 
L 54.296875 0 
L 16.703125 56.25 
L 16.703125 0 
z
" id="ArialMT-4e"/>
      <path d="M 23.390625 -21.046875 
Q 16.109375 -11.859375 11.078125 0.4375 
Q 6.0625 12.75 6.0625 25.921875 
Q 6.0625 37.546875 9.8125 48.1875 
Q 14.203125 60.546875 23.390625 72.796875 
L 29.6875 72.796875 
Q 23.78125 62.640625 21.875 58.296875 
Q 18.890625 51.5625 17.1875 44.234375 
Q 15.09375 35.109375 15.09375 25.875 
Q 15.09375 2.390625 29.6875 -21.046875 
z
" id="ArialMT-28"/>
      <path d="M 8.6875 0 
L 8.6875 45.015625 
L 0.921875 45.015625 
L 0.921875 51.859375 
L 8.6875 51.859375 
L 8.6875 57.375 
Q 8.6875 62.59375 9.625 65.140625 
Q 10.890625 68.5625 14.078125 70.671875 
Q 17.28125 72.796875 23.046875 72.796875 
Q 26.765625 72.796875 31.25 71.921875 
L 29.9375 64.265625 
Q 27.203125 64.75 24.75 64.75 
Q 20.75 64.75 19.09375 63.03125 
Q 17.4375 61.328125 17.4375 56.640625 
L 17.4375 51.859375 
L 27.546875 51.859375 
L 27.546875 45.015625 
L 17.4375 45.015625 
L 17.4375 0 
z
" id="ArialMT-66"/>
      <path d="M 4.15625 18.75 
L 13.375 19.53125 
Q 14.40625 12.796875 18.140625 9.390625 
Q 21.875 6 27.15625 6 
Q 33.5 6 37.890625 10.78125 
Q 42.28125 15.578125 42.28125 23.484375 
Q 42.28125 31 38.0625 35.34375 
Q 33.84375 39.703125 27 39.703125 
Q 22.75 39.703125 19.328125 37.765625 
Q 15.921875 35.84375 13.96875 32.765625 
L 5.71875 33.84375 
L 12.640625 70.609375 
L 48.25 70.609375 
L 48.25 62.203125 
L 19.671875 62.203125 
L 15.828125 42.96875 
Q 22.265625 47.46875 29.34375 47.46875 
Q 38.71875 47.46875 45.15625 40.96875 
Q 51.609375 34.46875 51.609375 24.265625 
Q 51.609375 14.546875 45.953125 7.46875 
Q 39.0625 -1.21875 27.15625 -1.21875 
Q 17.390625 -1.21875 11.203125 4.25 
Q 5.03125 9.71875 4.15625 18.75 
z
" id="ArialMT-35"/>
      <path d="M 12.359375 -21.046875 
L 6.0625 -21.046875 
Q 20.65625 2.390625 20.65625 25.875 
Q 20.65625 35.0625 18.5625 44.09375 
Q 16.890625 51.421875 13.921875 58.15625 
Q 12.015625 62.546875 6.0625 72.796875 
L 12.359375 72.796875 
Q 21.53125 60.546875 25.921875 48.1875 
Q 29.6875 37.546875 29.6875 25.921875 
Q 29.6875 12.75 24.625 0.4375 
Q 19.578125 -11.859375 12.359375 -21.046875 
z
" id="ArialMT-29"/>
     </defs>
     <g style="fill:#262626;" transform="translate(588.161563 127.061406)scale(0.13 -0.13)">
      <use xlink:href="#ArialMT-48"/>
      <use x="72.216797" xlink:href="#ArialMT-65"/>
      <use x="127.832031" xlink:href="#ArialMT-70"/>
      <use x="183.447266" xlink:href="#ArialMT-61"/>
      <use x="239.0625" xlink:href="#ArialMT-74"/>
      <use x="266.845703" xlink:href="#ArialMT-6f"/>
      <use x="322.460938" xlink:href="#ArialMT-20"/>
      <use x="350.244141" xlink:href="#ArialMT-44"/>
      <use x="422.460938" xlink:href="#ArialMT-4e"/>
      <use x="494.677734" xlink:href="#ArialMT-41"/>
      <use x="561.298828" xlink:href="#ArialMT-20"/>
      <use x="589.082031" xlink:href="#ArialMT-28"/>
      <use x="622.382812" xlink:href="#ArialMT-63"/>
      <use x="672.382812" xlink:href="#ArialMT-6f"/>
      <use x="727.998047" xlink:href="#ArialMT-6c"/>
      <use x="750.214844" xlink:href="#ArialMT-6c"/>
      <use x="772.431641" xlink:href="#ArialMT-20"/>
      <use x="800.214844" xlink:href="#ArialMT-61"/>
      <use x="855.830078" xlink:href="#ArialMT-66"/>
      <use x="883.613281" xlink:href="#ArialMT-74"/>
      <use x="911.396484" xlink:href="#ArialMT-65"/>
      <use x="967.011719" xlink:href="#ArialMT-72"/>
      <use x="1000.3125" xlink:href="#ArialMT-20"/>
      <use x="1028.095703" xlink:href="#ArialMT-32"/>
      <use x="1083.710938" xlink:href="#ArialMT-30"/>
      <use x="1139.326172" xlink:href="#ArialMT-31"/>
      <use x="1194.941406" xlink:href="#ArialMT-35"/>
      <use x="1250.556641" xlink:href="#ArialMT-29"/>
     </g>
    </g>
    <g id="line2d_39"/>
    <g id="line2d_40">
     <g>
      <use style="fill:#ff0000;" x="564.761563" xlink:href="#m4b7309e76c" y="141.211094"/>
     </g>
    </g>
    <g id="text_11">
     <!-- Hepato DNA (coll before 2015) -->
     <defs>
      <path d="M 14.703125 0 
L 6.546875 0 
L 6.546875 71.578125 
L 15.328125 71.578125 
L 15.328125 46.046875 
Q 20.90625 53.03125 29.546875 53.03125 
Q 34.328125 53.03125 38.59375 51.09375 
Q 42.875 49.171875 45.625 45.671875 
Q 48.390625 42.1875 49.953125 37.25 
Q 51.515625 32.328125 51.515625 26.703125 
Q 51.515625 13.375 44.921875 6.09375 
Q 38.328125 -1.171875 29.109375 -1.171875 
Q 19.921875 -1.171875 14.703125 6.5 
z
M 14.59375 26.3125 
Q 14.59375 17 17.140625 12.84375 
Q 21.296875 6.0625 28.375 6.0625 
Q 34.125 6.0625 38.328125 11.0625 
Q 42.53125 16.0625 42.53125 25.984375 
Q 42.53125 36.140625 38.5 40.96875 
Q 34.46875 45.796875 28.765625 45.796875 
Q 23 45.796875 18.796875 40.796875 
Q 14.59375 35.796875 14.59375 26.3125 
z
" id="ArialMT-62"/>
     </defs>
     <g style="fill:#262626;" transform="translate(588.161563 145.761094)scale(0.13 -0.13)">
      <use xlink:href="#ArialMT-48"/>
      <use x="72.216797" xlink:href="#ArialMT-65"/>
      <use x="127.832031" xlink:href="#ArialMT-70"/>
      <use x="183.447266" xlink:href="#ArialMT-61"/>
      <use x="239.0625" xlink:href="#ArialMT-74"/>
      <use x="266.845703" xlink:href="#ArialMT-6f"/>
      <use x="322.460938" xlink:href="#ArialMT-20"/>
      <use x="350.244141" xlink:href="#ArialMT-44"/>
      <use x="422.460938" xlink:href="#ArialMT-4e"/>
      <use x="494.677734" xlink:href="#ArialMT-41"/>
      <use x="561.298828" xlink:href="#ArialMT-20"/>
      <use x="589.082031" xlink:href="#ArialMT-28"/>
      <use x="622.382812" xlink:href="#ArialMT-63"/>
      <use x="672.382812" xlink:href="#ArialMT-6f"/>
      <use x="727.998047" xlink:href="#ArialMT-6c"/>
      <use x="750.214844" xlink:href="#ArialMT-6c"/>
      <use x="772.431641" xlink:href="#ArialMT-20"/>
      <use x="800.214844" xlink:href="#ArialMT-62"/>
      <use x="855.830078" xlink:href="#ArialMT-65"/>
      <use x="911.445312" xlink:href="#ArialMT-66"/>
      <use x="939.228516" xlink:href="#ArialMT-6f"/>
      <use x="994.84375" xlink:href="#ArialMT-72"/>
      <use x="1028.144531" xlink:href="#ArialMT-65"/>
      <use x="1083.759766" xlink:href="#ArialMT-20"/>
      <use x="1111.542969" xlink:href="#ArialMT-32"/>
      <use x="1167.158203" xlink:href="#ArialMT-30"/>
      <use x="1222.773438" xlink:href="#ArialMT-31"/>
      <use x="1278.388672" xlink:href="#ArialMT-35"/>
      <use x="1334.003906" xlink:href="#ArialMT-29"/>
     </g>
    </g>
   </g>
  </g>
  <g id="axes_2">
   <g id="patch_7">
    <path d="M 108 504 
L 777.6 504 
L 777.6 306.327273 
L 108 306.327273 
z
" style="fill:#eaeaf2;"/>
   </g>
   <g id="matplotlib.axis_3">
    <g id="xtick_13">
     <g id="line2d_41">
      <path clip-path="url(#p7a2cba51bf)" d="M 174.356757 504 
L 174.356757 306.327273 
" style="fill:none;stroke:#ffffff;stroke-linecap:round;stroke-width:1.3;"/>
     </g>
     <g id="line2d_42"/>
     <g id="text_12">
      <!-- 1920 -->
      <defs>
       <path d="M 5.46875 16.546875 
L 13.921875 17.328125 
Q 14.984375 11.375 18.015625 8.6875 
Q 21.046875 6 25.78125 6 
Q 29.828125 6 32.875 7.859375 
Q 35.9375 9.71875 37.890625 12.8125 
Q 39.84375 15.921875 41.15625 21.1875 
Q 42.484375 26.46875 42.484375 31.9375 
Q 42.484375 32.515625 42.4375 33.6875 
Q 39.796875 29.5 35.234375 26.875 
Q 30.671875 24.265625 25.34375 24.265625 
Q 16.453125 24.265625 10.296875 30.703125 
Q 4.15625 37.15625 4.15625 47.703125 
Q 4.15625 58.59375 10.578125 65.234375 
Q 17 71.875 26.65625 71.875 
Q 33.640625 71.875 39.421875 68.109375 
Q 45.21875 64.359375 48.21875 57.390625 
Q 51.21875 50.4375 51.21875 37.25 
Q 51.21875 23.53125 48.234375 15.40625 
Q 45.265625 7.28125 39.375 3.03125 
Q 33.5 -1.21875 25.59375 -1.21875 
Q 17.1875 -1.21875 11.859375 3.4375 
Q 6.546875 8.109375 5.46875 16.546875 
z
M 41.453125 48.140625 
Q 41.453125 55.71875 37.421875 60.15625 
Q 33.40625 64.59375 27.734375 64.59375 
Q 21.875 64.59375 17.53125 59.8125 
Q 13.1875 55.03125 13.1875 47.40625 
Q 13.1875 40.578125 17.3125 36.296875 
Q 21.4375 32.03125 27.484375 32.03125 
Q 33.59375 32.03125 37.515625 36.296875 
Q 41.453125 40.578125 41.453125 48.140625 
z
" id="ArialMT-39"/>
      </defs>
      <g style="fill:#262626;" transform="translate(159.898319 522.405156)scale(0.13 -0.13)">
       <use xlink:href="#ArialMT-31"/>
       <use x="55.615234" xlink:href="#ArialMT-39"/>
       <use x="111.230469" xlink:href="#ArialMT-32"/>
       <use x="166.845703" xlink:href="#ArialMT-30"/>
      </g>
     </g>
    </g>
    <g id="xtick_14">
     <g id="line2d_43">
      <path clip-path="url(#p7a2cba51bf)" d="M 295.005405 504 
L 295.005405 306.327273 
" style="fill:none;stroke:#ffffff;stroke-linecap:round;stroke-width:1.3;"/>
     </g>
     <g id="line2d_44"/>
     <g id="text_13">
      <!-- 1940 -->
      <g style="fill:#262626;" transform="translate(280.546968 522.405156)scale(0.13 -0.13)">
       <use xlink:href="#ArialMT-31"/>
       <use x="55.615234" xlink:href="#ArialMT-39"/>
       <use x="111.230469" xlink:href="#ArialMT-34"/>
       <use x="166.845703" xlink:href="#ArialMT-30"/>
      </g>
     </g>
    </g>
    <g id="xtick_15">
     <g id="line2d_45">
      <path clip-path="url(#p7a2cba51bf)" d="M 415.654054 504 
L 415.654054 306.327273 
" style="fill:none;stroke:#ffffff;stroke-linecap:round;stroke-width:1.3;"/>
     </g>
     <g id="line2d_46"/>
     <g id="text_14">
      <!-- 1960 -->
      <g style="fill:#262626;" transform="translate(401.195617 522.405156)scale(0.13 -0.13)">
       <use xlink:href="#ArialMT-31"/>
       <use x="55.615234" xlink:href="#ArialMT-39"/>
       <use x="111.230469" xlink:href="#ArialMT-36"/>
       <use x="166.845703" xlink:href="#ArialMT-30"/>
      </g>
     </g>
    </g>
    <g id="xtick_16">
     <g id="line2d_47">
      <path clip-path="url(#p7a2cba51bf)" d="M 536.302703 504 
L 536.302703 306.327273 
" style="fill:none;stroke:#ffffff;stroke-linecap:round;stroke-width:1.3;"/>
     </g>
     <g id="line2d_48"/>
     <g id="text_15">
      <!-- 1980 -->
      <g style="fill:#262626;" transform="translate(521.844265 522.405156)scale(0.13 -0.13)">
       <use xlink:href="#ArialMT-31"/>
       <use x="55.615234" xlink:href="#ArialMT-39"/>
       <use x="111.230469" xlink:href="#ArialMT-38"/>
       <use x="166.845703" xlink:href="#ArialMT-30"/>
      </g>
     </g>
    </g>
    <g id="xtick_17">
     <g id="line2d_49">
      <path clip-path="url(#p7a2cba51bf)" d="M 656.951351 504 
L 656.951351 306.327273 
" style="fill:none;stroke:#ffffff;stroke-linecap:round;stroke-width:1.3;"/>
     </g>
     <g id="line2d_50"/>
     <g id="text_16">
      <!-- 2000 -->
      <g style="fill:#262626;" transform="translate(642.492914 522.405156)scale(0.13 -0.13)">
       <use xlink:href="#ArialMT-32"/>
       <use x="55.615234" xlink:href="#ArialMT-30"/>
       <use x="111.230469" xlink:href="#ArialMT-30"/>
       <use x="166.845703" xlink:href="#ArialMT-30"/>
      </g>
     </g>
    </g>
    <g id="xtick_18">
     <g id="line2d_51">
      <path clip-path="url(#p7a2cba51bf)" d="M 777.6 504 
L 777.6 306.327273 
" style="fill:none;stroke:#ffffff;stroke-linecap:round;stroke-width:1.3;"/>
     </g>
     <g id="line2d_52"/>
     <g id="text_17">
      <!-- 2020 -->
      <g style="fill:#262626;" transform="translate(763.141563 522.405156)scale(0.13 -0.13)">
       <use xlink:href="#ArialMT-32"/>
       <use x="55.615234" xlink:href="#ArialMT-30"/>
       <use x="111.230469" xlink:href="#ArialMT-32"/>
       <use x="166.845703" xlink:href="#ArialMT-30"/>
      </g>
     </g>
    </g>
    <g id="xtick_19">
     <g id="line2d_53"/>
    </g>
    <g id="xtick_20">
     <g id="line2d_54"/>
    </g>
    <g id="xtick_21">
     <g id="line2d_55"/>
    </g>
    <g id="xtick_22">
     <g id="line2d_56"/>
    </g>
    <g id="xtick_23">
     <g id="line2d_57"/>
    </g>
    <g id="xtick_24">
     <g id="line2d_58"/>
    </g>
    <g id="text_18">
     <!-- Calendar year -->
     <g style="fill:#262626;" transform="translate(397.892414 539.398859)scale(0.143 -0.143)">
      <use xlink:href="#ArialMT-43"/>
      <use x="72.216797" xlink:href="#ArialMT-61"/>
      <use x="127.832031" xlink:href="#ArialMT-6c"/>
      <use x="150.048828" xlink:href="#ArialMT-65"/>
      <use x="205.664062" xlink:href="#ArialMT-6e"/>
      <use x="261.279297" xlink:href="#ArialMT-64"/>
      <use x="316.894531" xlink:href="#ArialMT-61"/>
      <use x="372.509766" xlink:href="#ArialMT-72"/>
      <use x="405.810547" xlink:href="#ArialMT-20"/>
      <use x="433.59375" xlink:href="#ArialMT-79"/>
      <use x="483.59375" xlink:href="#ArialMT-65"/>
      <use x="539.208984" xlink:href="#ArialMT-61"/>
      <use x="594.824219" xlink:href="#ArialMT-72"/>
     </g>
    </g>
   </g>
   <g id="matplotlib.axis_4">
    <g id="ytick_6">
     <g id="line2d_59">
      <path clip-path="url(#p7a2cba51bf)" d="M 108 504 
L 777.6 504 
" style="fill:none;stroke:#ffffff;stroke-linecap:round;stroke-width:1.3;"/>
     </g>
     <g id="line2d_60"/>
     <g id="text_19">
      <!-- 0.000 -->
      <g style="fill:#262626;" transform="translate(66.371563 508.652578)scale(0.13 -0.13)">
       <use xlink:href="#ArialMT-30"/>
       <use x="55.615234" xlink:href="#ArialMT-2e"/>
       <use x="83.398438" xlink:href="#ArialMT-30"/>
       <use x="139.013672" xlink:href="#ArialMT-30"/>
       <use x="194.628906" xlink:href="#ArialMT-30"/>
      </g>
     </g>
    </g>
    <g id="ytick_7">
     <g id="line2d_61">
      <path clip-path="url(#p7a2cba51bf)" d="M 108 471.054545 
L 777.6 471.054545 
" style="fill:none;stroke:#ffffff;stroke-linecap:round;stroke-width:1.3;"/>
     </g>
     <g id="line2d_62"/>
     <g id="text_20">
      <!-- 0.025 -->
      <g style="fill:#262626;" transform="translate(66.371563 475.707124)scale(0.13 -0.13)">
       <use xlink:href="#ArialMT-30"/>
       <use x="55.615234" xlink:href="#ArialMT-2e"/>
       <use x="83.398438" xlink:href="#ArialMT-30"/>
       <use x="139.013672" xlink:href="#ArialMT-32"/>
       <use x="194.628906" xlink:href="#ArialMT-35"/>
      </g>
     </g>
    </g>
    <g id="ytick_8">
     <g id="line2d_63">
      <path clip-path="url(#p7a2cba51bf)" d="M 108 438.109091 
L 777.6 438.109091 
" style="fill:none;stroke:#ffffff;stroke-linecap:round;stroke-width:1.3;"/>
     </g>
     <g id="line2d_64"/>
     <g id="text_21">
      <!-- 0.050 -->
      <g style="fill:#262626;" transform="translate(66.371563 442.761669)scale(0.13 -0.13)">
       <use xlink:href="#ArialMT-30"/>
       <use x="55.615234" xlink:href="#ArialMT-2e"/>
       <use x="83.398438" xlink:href="#ArialMT-30"/>
       <use x="139.013672" xlink:href="#ArialMT-35"/>
       <use x="194.628906" xlink:href="#ArialMT-30"/>
      </g>
     </g>
    </g>
    <g id="ytick_9">
     <g id="line2d_65">
      <path clip-path="url(#p7a2cba51bf)" d="M 108 405.163636 
L 777.6 405.163636 
" style="fill:none;stroke:#ffffff;stroke-linecap:round;stroke-width:1.3;"/>
     </g>
     <g id="line2d_66"/>
     <g id="text_22">
      <!-- 0.075 -->
      <defs>
       <path d="M 4.734375 62.203125 
L 4.734375 70.65625 
L 51.078125 70.65625 
L 51.078125 63.8125 
Q 44.234375 56.546875 37.515625 44.484375 
Q 30.8125 32.421875 27.15625 19.671875 
Q 24.515625 10.6875 23.78125 0 
L 14.75 0 
Q 14.890625 8.453125 18.0625 20.40625 
Q 21.234375 32.375 27.171875 43.484375 
Q 33.109375 54.59375 39.796875 62.203125 
z
" id="ArialMT-37"/>
      </defs>
      <g style="fill:#262626;" transform="translate(66.371563 409.816214)scale(0.13 -0.13)">
       <use xlink:href="#ArialMT-30"/>
       <use x="55.615234" xlink:href="#ArialMT-2e"/>
       <use x="83.398438" xlink:href="#ArialMT-30"/>
       <use x="139.013672" xlink:href="#ArialMT-37"/>
       <use x="194.628906" xlink:href="#ArialMT-35"/>
      </g>
     </g>
    </g>
    <g id="ytick_10">
     <g id="line2d_67">
      <path clip-path="url(#p7a2cba51bf)" d="M 108 372.218182 
L 777.6 372.218182 
" style="fill:none;stroke:#ffffff;stroke-linecap:round;stroke-width:1.3;"/>
     </g>
     <g id="line2d_68"/>
     <g id="text_23">
      <!-- 0.100 -->
      <g style="fill:#262626;" transform="translate(66.371563 376.87076)scale(0.13 -0.13)">
       <use xlink:href="#ArialMT-30"/>
       <use x="55.615234" xlink:href="#ArialMT-2e"/>
       <use x="83.398438" xlink:href="#ArialMT-31"/>
       <use x="139.013672" xlink:href="#ArialMT-30"/>
       <use x="194.628906" xlink:href="#ArialMT-30"/>
      </g>
     </g>
    </g>
    <g id="ytick_11">
     <g id="line2d_69">
      <path clip-path="url(#p7a2cba51bf)" d="M 108 339.272727 
L 777.6 339.272727 
" style="fill:none;stroke:#ffffff;stroke-linecap:round;stroke-width:1.3;"/>
     </g>
     <g id="line2d_70"/>
     <g id="text_24">
      <!-- 0.125 -->
      <g style="fill:#262626;" transform="translate(66.371563 343.925305)scale(0.13 -0.13)">
       <use xlink:href="#ArialMT-30"/>
       <use x="55.615234" xlink:href="#ArialMT-2e"/>
       <use x="83.398438" xlink:href="#ArialMT-31"/>
       <use x="139.013672" xlink:href="#ArialMT-32"/>
       <use x="194.628906" xlink:href="#ArialMT-35"/>
      </g>
     </g>
    </g>
    <g id="ytick_12">
     <g id="line2d_71">
      <path clip-path="url(#p7a2cba51bf)" d="M 108 306.327273 
L 777.6 306.327273 
" style="fill:none;stroke:#ffffff;stroke-linecap:round;stroke-width:1.3;"/>
     </g>
     <g id="line2d_72"/>
     <g id="text_25">
      <!-- 0.150 -->
      <g style="fill:#262626;" transform="translate(66.371563 310.979851)scale(0.13 -0.13)">
       <use xlink:href="#ArialMT-30"/>
       <use x="55.615234" xlink:href="#ArialMT-2e"/>
       <use x="83.398438" xlink:href="#ArialMT-31"/>
       <use x="139.013672" xlink:href="#ArialMT-35"/>
       <use x="194.628906" xlink:href="#ArialMT-30"/>
      </g>
     </g>
    </g>
    <g id="text_26">
     <!-- $\Delta^{14}$C -->
     <g style="fill:#262626;" transform="translate(59.529438 421.894636)rotate(-90)scale(0.143 -0.143)">
      <use transform="translate(0 0.684375)" xlink:href="#DejaVuSans-394"/>
      <use transform="translate(69.365234 38.965625)scale(0.7)" xlink:href="#DejaVuSans-31"/>
      <use transform="translate(113.901367 38.965625)scale(0.7)" xlink:href="#DejaVuSans-34"/>
      <use transform="translate(161.171875 0.684375)" xlink:href="#ArialMT-43"/>
     </g>
    </g>
   </g>
   <g id="LineCollection_3">
    <path clip-path="url(#p7a2cba51bf)" d="M 567.47027 477.570192 
L 567.47027 434.609319 
" style="fill:none;stroke:#000000;stroke-width:2.275;"/>
    <path clip-path="url(#p7a2cba51bf)" d="M 548.87027 479.364008 
L 548.87027 436.403136 
" style="fill:none;stroke:#000000;stroke-width:2.275;"/>
    <path clip-path="url(#p7a2cba51bf)" d="M 334.216216 398.141036 
L 334.216216 355.180164 
" style="fill:none;stroke:#000000;stroke-width:2.275;"/>
    <path clip-path="url(#p7a2cba51bf)" d="M 330.194595 400.287618 
L 330.194595 357.326745 
" style="fill:none;stroke:#000000;stroke-width:2.275;"/>
    <path clip-path="url(#p7a2cba51bf)" d="M 280.427027 479.980717 
L 280.427027 437.019844 
" style="fill:none;stroke:#000000;stroke-width:2.275;"/>
    <path clip-path="url(#p7a2cba51bf)" d="M 605.172973 480.987601 
L 605.172973 438.026728 
" style="fill:none;stroke:#000000;stroke-width:2.275;"/>
    <path clip-path="url(#p7a2cba51bf)" d="M 538.816216 476.640062 
L 538.816216 433.679189 
" style="fill:none;stroke:#000000;stroke-width:2.275;"/>
    <path clip-path="url(#p7a2cba51bf)" d="M 312.097297 476.913418 
L 312.097297 433.952546 
" style="fill:none;stroke:#000000;stroke-width:2.275;"/>
    <path clip-path="url(#p7a2cba51bf)" d="M 362.367568 479.65843 
L 362.367568 436.697557 
" style="fill:none;stroke:#000000;stroke-width:2.275;"/>
    <path clip-path="url(#p7a2cba51bf)" d="M 439.783784 481.706164 
L 439.783784 438.745291 
" style="fill:none;stroke:#000000;stroke-width:2.275;"/>
    <path clip-path="url(#p7a2cba51bf)" d="M 372.924324 483.905504 
L 372.924324 440.944632 
" style="fill:none;stroke:#000000;stroke-width:2.275;"/>
    <path clip-path="url(#p7a2cba51bf)" d="M 531.778378 481.855822 
L 531.778378 438.894949 
" style="fill:none;stroke:#000000;stroke-width:2.275;"/>
    <path clip-path="url(#p7a2cba51bf)" d="M 315.113514 482.026361 
L 315.113514 439.065488 
" style="fill:none;stroke:#000000;stroke-width:2.275;"/>
    <path clip-path="url(#p7a2cba51bf)" d="M 482.513514 482.896947 
L 482.513514 439.936074 
" style="fill:none;stroke:#000000;stroke-width:2.275;"/>
    <path clip-path="url(#p7a2cba51bf)" d="M 373.427027 484.83354 
L 373.427027 441.872668 
" style="fill:none;stroke:#000000;stroke-width:2.275;"/>
    <path clip-path="url(#p7a2cba51bf)" d="M 628.8 481.195654 
L 628.8 438.234781 
" style="fill:none;stroke:#000000;stroke-width:2.275;"/>
    <path clip-path="url(#p7a2cba51bf)" d="M 250.264865 482.644755 
L 250.264865 439.683882 
" style="fill:none;stroke:#000000;stroke-width:2.275;"/>
    <path clip-path="url(#p7a2cba51bf)" d="M 535.297297 484.099052 
L 535.297297 441.13818 
" style="fill:none;stroke:#000000;stroke-width:2.275;"/>
    <path clip-path="url(#p7a2cba51bf)" d="M 548.87027 478.585022 
L 548.87027 435.624149 
" style="fill:none;stroke:#000000;stroke-width:2.275;"/>
   </g>
   <g id="line2d_73">
    <path clip-path="url(#p7a2cba51bf)" d="M 114.032432 513.007287 
L 270.126905 524.370567 
L 292.046555 526.012266 
L 298.024641 530.6194 
L 304.002727 529.574643 
L 309.980813 529.824619 
L 311.973509 531.024705 
L 315.958899 533.549533 
L 316.623131 533.562791 
L 321.936986 532.634118 
L 323.265449 532.694007 
L 328.579304 533.08058 
L 340.535476 531.881154 
L 346.513562 533.504155 
L 352.491648 536.42611 
L 360.46243 536.681891 
L 369.097443 536.784981 
L 370.425907 536.810375 
L 376.403993 535.504429 
L 382.382079 531.863214 
L 383.710543 528.326013 
L 388.360166 515.223022 
L 389.688629 505.857279 
L 394.338252 470.611249 
L 396.330947 450.890542 
L 400.316338 410.406218 
L 401.644802 392.064603 
L 406.958656 312.466406 
L 412.27251 210.54458 
L 412.936742 204.562622 
L 418.250597 222.787823 
L 418.914828 223.730347 
L 424.228683 212.934527 
L 424.892915 206.282909 
L 430.206769 47.363798 
L 430.871001 20.883106 
L 431.149411 -1 
M 506.547406 -1 
L 509.250353 17.024563 
L 516.556903 45.026485 
L 521.206525 63.919169 
L 525.856148 72.181256 
L 527.184612 74.531959 
L 529.177307 87.259193 
L 535.819625 131.510117 
L 539.140784 154.219065 
L 539.805016 156.265377 
L 545.11887 165.319936 
L 545.783102 167.45153 
L 551.761188 191.126417 
L 559.067738 213.920846 
L 563.053129 226.893242 
L 563.717361 228.650267 
L 569.695447 239.20086 
L 575.673533 252.462081 
L 582.980083 266.248715 
L 588.958169 278.474414 
L 594.272023 290.125628 
L 600.25011 304.305431 
L 605.563964 315.449503 
L 607.556659 318.354705 
L 612.206282 325.120231 
L 618.184368 335.402972 
L 626.15515 346.529038 
L 630.140541 352.201988 
L 642.760945 367.757915 
L 648.074799 375.026559 
L 654.052885 385.483822 
L 660.030972 389.958666 
L 677.96523 413.071733 
L 679.957925 418.016957 
L 680.622157 419.706301 
L 681.286389 420.731698 
L 684.607548 423.812864 
L 687.264475 425.905071 
L 689.921402 427.933891 
L 693.242561 430.683456 
L 695.235257 432.096783 
L 697.892184 433.648028 
L 701.213343 436.071448 
L 716.490674 446.288341 
L 719.147602 448.086808 
L 719.811833 448.814284 
L 721.140297 451.10845 
L 723.797224 457.622186 
L 724.461456 457.853851 
L 727.118383 455.196694 
L 729.77531 462.059381 
L 730.439542 463.079607 
L 733.096469 464.585687 
L 735.753397 476.832263 
L 736.417628 478.236654 
L 739.074556 475.224492 
L 739.738787 476.094679 
L 741.731483 479.322468 
L 742.395715 480.036312 
L 745.052642 480.268017 
L 745.716874 481.778718 
L 747.709569 487.36192 
L 748.373801 488.609988 
L 751.030728 487.100895 
L 751.69496 487.702091 
L 754.351887 491.343372 
L 757.673046 491.29845 
L 760.329973 491.81607 
L 765.643828 494.028677 
L 768.964987 495.21186 
L 772.950377 496.440916 
L 774.943073 496.992762 
L 775.607305 497.661773 
L 777.6 501.800631 
L 777.6 501.800631 
" style="fill:none;stroke:#000000;stroke-linecap:round;stroke-width:2.275;"/>
   </g>
   <g id="line2d_74">
    <g clip-path="url(#p7a2cba51bf)">
     <use style="fill:#ffffff;" x="567.47027" xlink:href="#md424a64bc2" y="456.089756"/>
     <use style="fill:#ffffff;" x="548.87027" xlink:href="#md424a64bc2" y="457.883572"/>
     <use style="fill:#ffffff;" x="334.216216" xlink:href="#md424a64bc2" y="376.6606"/>
     <use style="fill:#ffffff;" x="330.194595" xlink:href="#md424a64bc2" y="378.807182"/>
     <use style="fill:#ffffff;" x="280.427027" xlink:href="#md424a64bc2" y="458.50028"/>
     <use style="fill:#ffffff;" x="605.172973" xlink:href="#md424a64bc2" y="459.507165"/>
     <use style="fill:#ffffff;" x="538.816216" xlink:href="#md424a64bc2" y="455.159625"/>
     <use style="fill:#ffffff;" x="312.097297" xlink:href="#md424a64bc2" y="455.432982"/>
     <use style="fill:#ffffff;" x="362.367568" xlink:href="#md424a64bc2" y="458.177994"/>
     <use style="fill:#ffffff;" x="439.783784" xlink:href="#md424a64bc2" y="460.225727"/>
     <use style="fill:#ffffff;" x="372.924324" xlink:href="#md424a64bc2" y="462.425068"/>
     <use style="fill:#ffffff;" x="531.778378" xlink:href="#md424a64bc2" y="460.375385"/>
     <use style="fill:#ffffff;" x="315.113514" xlink:href="#md424a64bc2" y="460.545924"/>
     <use style="fill:#ffffff;" x="482.513514" xlink:href="#md424a64bc2" y="461.41651"/>
     <use style="fill:#ffffff;" x="373.427027" xlink:href="#md424a64bc2" y="463.353104"/>
     <use style="fill:#ffffff;" x="628.8" xlink:href="#md424a64bc2" y="459.715217"/>
     <use style="fill:#ffffff;" x="250.264865" xlink:href="#md424a64bc2" y="461.164319"/>
     <use style="fill:#ffffff;" x="535.297297" xlink:href="#md424a64bc2" y="462.618616"/>
     <use style="fill:#ffffff;" x="548.87027" xlink:href="#md424a64bc2" y="457.104585"/>
    </g>
   </g>
   <g id="line2d_75">
    <g clip-path="url(#p7a2cba51bf)">
     <use x="567.47027" xlink:href="#m933db66046" y="450.844112"/>
     <use x="548.87027" xlink:href="#m933db66046" y="479.204805"/>
     <use x="334.216216" xlink:href="#m933db66046" y="405.161811"/>
     <use x="330.194595" xlink:href="#m933db66046" y="384.933429"/>
     <use x="280.427027" xlink:href="#m933db66046" y="449.649667"/>
     <use x="605.172973" xlink:href="#m933db66046" y="479.523527"/>
     <use x="538.816216" xlink:href="#m933db66046" y="470.000291"/>
     <use x="312.097297" xlink:href="#m933db66046" y="415.047273"/>
     <use x="362.367568" xlink:href="#m933db66046" y="480.674618"/>
     <use x="439.783784" xlink:href="#m933db66046" y="467.101091"/>
     <use x="372.924324" xlink:href="#m933db66046" y="451.8144"/>
     <use x="531.778378" xlink:href="#m933db66046" y="438.636218"/>
     <use x="315.113514" xlink:href="#m933db66046" y="403.9776"/>
     <use x="482.513514" xlink:href="#m933db66046" y="441.061785"/>
     <use x="373.427027" xlink:href="#m933db66046" y="452.431881"/>
     <use x="628.8" xlink:href="#m933db66046" y="468.863863"/>
     <use x="250.264865" xlink:href="#m933db66046" y="461.829818"/>
     <use x="535.297297" xlink:href="#m933db66046" y="434.946327"/>
     <use x="548.87027" xlink:href="#m933db66046" y="460.775564"/>
    </g>
   </g>
   <g id="line2d_76">
    <g clip-path="url(#p7a2cba51bf)">
     <use style="fill:#ff0000;" x="334.216216" xlink:href="#m4b7309e76c" y="405.161811"/>
     <use style="fill:#ff0000;" x="330.194595" xlink:href="#m4b7309e76c" y="384.933429"/>
    </g>
   </g>
   <g id="patch_8">
    <path d="M 108 504 
L 108 306.327273 
" style="fill:none;"/>
   </g>
   <g id="patch_9">
    <path d="M 777.6 504 
L 777.6 306.327273 
" style="fill:none;"/>
   </g>
   <g id="patch_10">
    <path d="M 108 504 
L 777.6 504 
" style="fill:none;"/>
   </g>
   <g id="patch_11">
    <path d="M 108 306.327273 
L 777.6 306.327273 
" style="fill:none;"/>
   </g>
  </g>
 </g>
 <defs>
  <clipPath id="ped17d82535">
   <rect height="197.672727" width="669.6" x="108" y="69.12"/>
  </clipPath>
  <clipPath id="p7a2cba51bf">
   <rect height="197.672727" width="669.6" x="108" y="306.327273"/>
  </clipPath>
 </defs>
</svg>
